<?xml version="1.0" encoding="UTF-8" standalone="no"?>
<!DOCTYPE svg PUBLIC "-//W3C//DTD SVG 1.1//EN"
 "http://www.w3.org/Graphics/SVG/1.1/DTD/svg11.dtd">
<!-- Generated by graphviz version 8.0.5 (20230430.1635)
 -->
<!-- Pages: 1 -->
<svg width="279pt" height="250pt"
 viewBox="0.00 0.00 278.86 249.75" xmlns="http://www.w3.org/2000/svg" xmlns:xlink="http://www.w3.org/1999/xlink">
<g id="graph0" class="graph" transform="scale(1 1) rotate(0) translate(4 245.75)">
<polygon fill="white" stroke="none" points="-4,4 -4,-245.75 274.86,-245.75 274.86,4 -4,4"/>
<!-- i -->
<g id="node1" class="node">
<title>i</title>
<ellipse fill="black" stroke="black" cx="1.8" cy="-40.13" rx="1.8" ry="1.8"/>
</g>
<!-- q0 -->
<g id="node2" class="node">
<title>q0</title>
<ellipse fill="none" stroke="black" cx="64.73" cy="-40.13" rx="20.13" ry="20.13"/>
<ellipse fill="none" stroke="black" cx="64.73" cy="-40.13" rx="24.13" ry="24.13"/>
<text text-anchor="middle" x="64.73" y="-34.7" font-family="Times New Roman,serif" font-size="14.00">q0</text>
</g>
<!-- i&#45;&gt;q0 -->
<g id="edge1" class="edge">
<title>i&#45;&gt;q0</title>
<path fill="none" stroke="black" d="M3.86,-40.13C7.7,-40.13 21.41,-40.13 34.73,-40.13"/>
<polygon fill="black" stroke="black" points="34.39,-41.88 39.39,-40.13 34.39,-38.38 34.39,-41.88"/>
</g>
<!-- q2 -->
<g id="node3" class="node">
<title>q2</title>
<ellipse fill="none" stroke="black" cx="155.73" cy="-82.13" rx="20.13" ry="20.13"/>
<ellipse fill="none" stroke="black" cx="155.73" cy="-82.13" rx="24.13" ry="24.13"/>
<text text-anchor="middle" x="155.73" y="-76.7" font-family="Times New Roman,serif" font-size="14.00">q2</text>
</g>
<!-- q0&#45;&gt;q2 -->
<g id="edge2" class="edge">
<title>q0&#45;&gt;q2</title>
<path fill="none" stroke="black" d="M86.82,-50.08C99.25,-55.95 115.1,-63.42 128.35,-69.68"/>
<polygon fill="black" stroke="black" points="127.21,-71.55 132.48,-72.1 128.7,-68.38 127.21,-71.55"/>
<text text-anchor="middle" x="110.23" y="-65.58" font-family="Times New Roman,serif" font-size="14.00">0</text>
</g>
<!-- q6 -->
<g id="node5" class="node">
<title>q6</title>
<ellipse fill="none" stroke="black" cx="246.73" cy="-24.13" rx="20.13" ry="20.13"/>
<ellipse fill="none" stroke="black" cx="246.73" cy="-24.13" rx="24.13" ry="24.13"/>
<text text-anchor="middle" x="246.73" y="-18.7" font-family="Times New Roman,serif" font-size="14.00">q6</text>
</g>
<!-- q0&#45;&gt;q6 -->
<g id="edge3" class="edge">
<title>q0&#45;&gt;q6</title>
<path fill="none" stroke="black" d="M89.19,-37.6C101.76,-36.28 117.52,-34.67 131.6,-33.38 160.5,-30.73 193.54,-28.09 216.61,-26.31"/>
<polygon fill="black" stroke="black" points="216.7,-27.99 221.55,-25.86 216.43,-24.5 216.7,-27.99"/>
<text text-anchor="middle" x="155.73" y="-36.58" font-family="Times New Roman,serif" font-size="14.00">1</text>
</g>
<!-- q4 -->
<g id="node4" class="node">
<title>q4</title>
<ellipse fill="none" stroke="black" cx="246.73" cy="-154.13" rx="20.13" ry="20.13"/>
<text text-anchor="middle" x="246.73" y="-148.7" font-family="Times New Roman,serif" font-size="14.00">q4</text>
</g>
<!-- q2&#45;&gt;q4 -->
<g id="edge4" class="edge">
<title>q2&#45;&gt;q4</title>
<path fill="none" stroke="black" d="M175.17,-97.04C190.03,-109.06 210.87,-125.93 226.05,-138.2"/>
<polygon fill="black" stroke="black" points="224.58,-140.07 229.57,-141.86 226.78,-137.35 224.58,-140.07"/>
<text text-anchor="middle" x="201.23" y="-122.58" font-family="Times New Roman,serif" font-size="14.00">0</text>
</g>
<!-- q2&#45;&gt;q6 -->
<g id="edge5" class="edge">
<title>q2&#45;&gt;q6</title>
<path fill="none" stroke="black" d="M176.48,-69.25C189.62,-60.69 206.97,-49.38 221.02,-40.23"/>
<polygon fill="black" stroke="black" points="221.8,-41.16 225.03,-36.96 219.89,-38.23 221.8,-41.16"/>
<text text-anchor="middle" x="201.23" y="-57.58" font-family="Times New Roman,serif" font-size="14.00">1</text>
</g>
<!-- q4&#45;&gt;q4 -->
<g id="edge6" class="edge">
<title>q4&#45;&gt;q4</title>
<path fill="none" stroke="black" d="M242.57,-174.13C242.06,-183.76 243.44,-192.25 246.73,-192.25 249.35,-192.25 250.76,-186.86 250.97,-179.8"/>
<polygon fill="black" stroke="black" points="252.71,-180.11 250.89,-175.13 249.21,-180.16 252.71,-180.11"/>
<text text-anchor="middle" x="246.73" y="-194.7" font-family="Times New Roman,serif" font-size="14.00">0</text>
</g>
<!-- q4&#45;&gt;q4 -->
<g id="edge7" class="edge">
<title>q4&#45;&gt;q4</title>
<path fill="none" stroke="black" d="M239.77,-173.39C236.28,-191.13 238.6,-210.25 246.73,-210.25 253.97,-210.25 256.6,-195.09 254.62,-179.24"/>
<polygon fill="black" stroke="black" points="256.21,-179.05 253.69,-174.39 252.75,-179.61 256.21,-179.05"/>
<text text-anchor="middle" x="246.73" y="-212.7" font-family="Times New Roman,serif" font-size="14.00">1</text>
</g>
<!-- q6&#45;&gt;q6 -->
<g id="edge8" class="edge">
<title>q6&#45;&gt;q6</title>
<path fill="none" stroke="black" d="M242.49,-48.37C242.25,-58.09 243.66,-66.25 246.73,-66.25 249.17,-66.25 250.57,-61.07 250.91,-54.04"/>
<polygon fill="black" stroke="black" points="252.67,-54.39 250.97,-49.37 249.17,-54.35 252.67,-54.39"/>
<text text-anchor="middle" x="246.73" y="-68.7" font-family="Times New Roman,serif" font-size="14.00">0</text>
</g>
<!-- q6&#45;&gt;q6 -->
<g id="edge9" class="edge">
<title>q6&#45;&gt;q6</title>
<path fill="none" stroke="black" d="M239.3,-47.58C236.52,-65.73 239,-84.25 246.73,-84.25 253.62,-84.25 256.33,-69.56 254.88,-53.52"/>
<polygon fill="black" stroke="black" points="256.5,-53.33 254.16,-48.58 253.03,-53.75 256.5,-53.33"/>
<text text-anchor="middle" x="246.73" y="-86.7" font-family="Times New Roman,serif" font-size="14.00">1</text>
</g>
</g>
</svg>
