<?xml version="1.0" encoding="UTF-8" standalone="no"?>
<!DOCTYPE svg PUBLIC "-//W3C//DTD SVG 1.1//EN"
 "http://www.w3.org/Graphics/SVG/1.1/DTD/svg11.dtd">
<!-- Generated by graphviz version 8.0.5 (20230430.1635)
 -->
<!-- Pages: 1 -->
<svg width="394pt" height="205pt"
 viewBox="0.00 0.00 393.76 205.23" xmlns="http://www.w3.org/2000/svg" xmlns:xlink="http://www.w3.org/1999/xlink">
<g id="graph0" class="graph" transform="scale(1 1) rotate(0) translate(4 201.23)">
<polygon fill="white" stroke="none" points="-4,4 -4,-201.23 389.76,-201.23 389.76,4 -4,4"/>
<!-- i -->
<g id="node1" class="node">
<title>i</title>
<ellipse fill="black" stroke="black" cx="1.8" cy="-24.13" rx="1.8" ry="1.8"/>
</g>
<!-- q0 -->
<g id="node2" class="node">
<title>q0</title>
<ellipse fill="none" stroke="black" cx="64.73" cy="-24.13" rx="20.13" ry="20.13"/>
<ellipse fill="none" stroke="black" cx="64.73" cy="-24.13" rx="24.13" ry="24.13"/>
<text text-anchor="middle" x="64.73" y="-18.7" font-family="Times New Roman,serif" font-size="14.00">q0</text>
</g>
<!-- i&#45;&gt;q0 -->
<g id="edge1" class="edge">
<title>i&#45;&gt;q0</title>
<path fill="none" stroke="black" d="M3.86,-24.13C7.7,-24.13 21.41,-24.13 34.73,-24.13"/>
<polygon fill="black" stroke="black" points="34.39,-25.88 39.39,-24.13 34.39,-22.38 34.39,-25.88"/>
</g>
<!-- q1 -->
<g id="node3" class="node">
<title>q1</title>
<ellipse fill="none" stroke="black" cx="151.73" cy="-91.13" rx="20.13" ry="20.13"/>
<text text-anchor="middle" x="151.73" y="-85.7" font-family="Times New Roman,serif" font-size="14.00">q1</text>
</g>
<!-- q0&#45;&gt;q1 -->
<g id="edge2" class="edge">
<title>q0&#45;&gt;q1</title>
<path fill="none" stroke="black" d="M84.17,-38.66C97.86,-49.45 116.51,-64.15 130.58,-75.25"/>
<polygon fill="black" stroke="black" points="129.16,-77.14 134.17,-78.86 131.33,-74.39 129.16,-77.14"/>
<text text-anchor="middle" x="110.23" y="-63.58" font-family="Times New Roman,serif" font-size="14.00">0</text>
</g>
<!-- l -->
<g id="node6" class="node">
<title>l</title>
<ellipse fill="none" stroke="black" cx="353.66" cy="-54.13" rx="27" ry="18"/>
<text text-anchor="middle" x="353.66" y="-48.7" font-family="Times New Roman,serif" font-size="14.00">l</text>
</g>
<!-- q0&#45;&gt;l -->
<g id="edge3" class="edge">
<title>q0&#45;&gt;l</title>
<path fill="none" stroke="black" d="M89.21,-26.58C140.58,-31.95 262.98,-44.75 321.05,-50.82"/>
<polygon fill="black" stroke="black" points="320.65,-52.64 325.8,-51.42 321.01,-49.16 320.65,-52.64"/>
<text text-anchor="middle" x="193.23" y="-40.58" font-family="Times New Roman,serif" font-size="14.00">1</text>
</g>
<!-- q2;q0 -->
<g id="node4" class="node">
<title>q2;q0</title>
<ellipse fill="none" stroke="black" cx="246.71" cy="-123.13" rx="32.1" ry="32.1"/>
<text text-anchor="middle" x="246.71" y="-117.7" font-family="Times New Roman,serif" font-size="14.00">q2;q0</text>
</g>
<!-- q1&#45;&gt;q2;q0 -->
<g id="edge5" class="edge">
<title>q1&#45;&gt;q2;q0</title>
<path fill="none" stroke="black" d="M171.1,-97.45C182.3,-101.31 197,-106.36 210.39,-110.97"/>
<polygon fill="black" stroke="black" points="209.73,-112.94 215.03,-112.91 210.87,-109.63 209.73,-112.94"/>
<text text-anchor="middle" x="193.23" y="-108.58" font-family="Times New Roman,serif" font-size="14.00">1</text>
</g>
<!-- q1&#45;&gt;l -->
<g id="edge4" class="edge">
<title>q1&#45;&gt;l</title>
<path fill="none" stroke="black" d="M170.42,-82.44C182.55,-76.89 199.19,-70.06 214.6,-66.38 250.22,-57.87 292.28,-55.15 320.53,-54.34"/>
<polygon fill="black" stroke="black" points="320.39,-56.07 325.34,-54.19 320.3,-52.57 320.39,-56.07"/>
<text text-anchor="middle" x="246.71" y="-68.58" font-family="Times New Roman,serif" font-size="14.00">0</text>
</g>
<!-- q0;q1 -->
<g id="node5" class="node">
<title>q0;q1</title>
<ellipse fill="none" stroke="black" cx="353.66" cy="-165.13" rx="32.1" ry="32.1"/>
<text text-anchor="middle" x="353.66" y="-159.7" font-family="Times New Roman,serif" font-size="14.00">q0;q1</text>
</g>
<!-- q2;q0&#45;&gt;q0;q1 -->
<g id="edge6" class="edge">
<title>q2;q0&#45;&gt;q0;q1</title>
<path fill="none" stroke="black" d="M279.13,-122.35C287.29,-122.99 295.93,-124.46 303.56,-127.38 311.23,-130.31 318.69,-134.86 325.39,-139.79"/>
<polygon fill="black" stroke="black" points="323.87,-141.59 328.9,-143.25 326,-138.82 323.87,-141.59"/>
<text text-anchor="middle" x="300.18" y="-129.58" font-family="Times New Roman,serif" font-size="14.00">0</text>
</g>
<!-- q2;q0&#45;&gt;l -->
<g id="edge7" class="edge">
<title>q2;q0&#45;&gt;l</title>
<path fill="none" stroke="black" d="M274.19,-105.71C291.03,-94.64 312.65,-80.43 328.93,-69.73"/>
<polygon fill="black" stroke="black" points="329.58,-70.74 332.8,-66.53 327.66,-67.81 329.58,-70.74"/>
<text text-anchor="middle" x="300.18" y="-92.58" font-family="Times New Roman,serif" font-size="14.00">1</text>
</g>
<!-- q0;q1&#45;&gt;q1 -->
<g id="edge8" class="edge">
<title>q0;q1&#45;&gt;q1</title>
<path fill="none" stroke="black" d="M321.97,-171.98C292.86,-176.9 248.65,-180.15 214.6,-164.13 192.35,-153.65 175.13,-130.87 164.58,-113.52"/>
<polygon fill="black" stroke="black" points="165.83,-113.2 161.78,-109.79 162.82,-114.98 165.83,-113.2"/>
<text text-anchor="middle" x="246.71" y="-177.58" font-family="Times New Roman,serif" font-size="14.00">0</text>
</g>
<!-- q0;q1&#45;&gt;q2;q0 -->
<g id="edge9" class="edge">
<title>q0;q1&#45;&gt;q2;q0</title>
<path fill="none" stroke="black" d="M323.36,-153.66C314.79,-150.29 305.42,-146.58 296.81,-143.13 292.04,-141.22 287.02,-139.19 282.08,-137.18"/>
<polygon fill="black" stroke="black" points="283.06,-135.29 277.76,-135.03 281.74,-138.53 283.06,-135.29"/>
<text text-anchor="middle" x="300.18" y="-147.58" font-family="Times New Roman,serif" font-size="14.00">1</text>
</g>
</g>
</svg>
