<?xml version="1.0" encoding="UTF-8" standalone="no"?>
<!DOCTYPE svg PUBLIC "-//W3C//DTD SVG 1.1//EN"
 "http://www.w3.org/Graphics/SVG/1.1/DTD/svg11.dtd">
<!-- Generated by graphviz version 8.0.5 (20230430.1635)
 -->
<!-- Pages: 1 -->
<svg width="263pt" height="124pt"
 viewBox="0.00 0.00 262.86 124.00" xmlns="http://www.w3.org/2000/svg" xmlns:xlink="http://www.w3.org/1999/xlink">
<g id="graph0" class="graph" transform="scale(1 1) rotate(0) translate(4 120)">
<polygon fill="white" stroke="none" points="-4,4 -4,-120 258.86,-120 258.86,4 -4,4"/>
<!-- i -->
<g id="node1" class="node">
<title>i</title>
<ellipse fill="black" stroke="black" cx="1.8" cy="-24.13" rx="1.8" ry="1.8"/>
</g>
<!-- q0 -->
<g id="node2" class="node">
<title>q0</title>
<ellipse fill="none" stroke="black" cx="60.73" cy="-24.13" rx="20.13" ry="20.13"/>
<text text-anchor="middle" x="60.73" y="-18.7" font-family="Times New Roman,serif" font-size="14.00">q0</text>
</g>
<!-- i&#45;&gt;q0 -->
<g id="edge1" class="edge">
<title>i&#45;&gt;q0</title>
<path fill="none" stroke="black" d="M3.79,-24.13C7.55,-24.13 21.44,-24.13 34.43,-24.13"/>
<polygon fill="black" stroke="black" points="34.3,-25.88 39.3,-24.13 34.3,-22.38 34.3,-25.88"/>
</g>
<!-- q1 -->
<g id="node3" class="node">
<title>q1</title>
<ellipse fill="none" stroke="black" cx="142.98" cy="-62.13" rx="20.13" ry="20.13"/>
<text text-anchor="middle" x="142.98" y="-56.7" font-family="Times New Roman,serif" font-size="14.00">q1</text>
</g>
<!-- q0&#45;&gt;q1 -->
<g id="edge2" class="edge">
<title>q0&#45;&gt;q1</title>
<path fill="none" stroke="black" d="M79.54,-32.56C91.17,-38.07 106.48,-45.32 119.03,-51.26"/>
<polygon fill="black" stroke="black" points="117.95,-53.16 123.22,-53.72 119.45,-49.99 117.95,-53.16"/>
<text text-anchor="middle" x="101.85" y="-46.58" font-family="Times New Roman,serif" font-size="14.00">a</text>
</g>
<!-- q2 -->
<g id="node4" class="node">
<title>q2</title>
<ellipse fill="none" stroke="black" cx="230.73" cy="-24.13" rx="20.13" ry="20.13"/>
<ellipse fill="none" stroke="black" cx="230.73" cy="-24.13" rx="24.13" ry="24.13"/>
<text text-anchor="middle" x="230.73" y="-18.7" font-family="Times New Roman,serif" font-size="14.00">q2</text>
</g>
<!-- q0&#45;&gt;q2 -->
<g id="edge3" class="edge">
<title>q0&#45;&gt;q2</title>
<path fill="none" stroke="black" d="M80.95,-21.45C92.97,-19.92 108.78,-18.15 122.85,-17.38 140.72,-16.39 145.24,-16.47 163.1,-17.38 175.37,-18 188.85,-19.25 200.46,-20.52"/>
<polygon fill="black" stroke="black" points="200.18,-22.36 205.34,-21.17 200.57,-18.88 200.18,-22.36"/>
<text text-anchor="middle" x="142.98" y="-20.58" font-family="Times New Roman,serif" font-size="14.00">b</text>
</g>
<!-- q1&#45;&gt;q1 -->
<g id="edge4" class="edge">
<title>q1&#45;&gt;q1</title>
<path fill="none" stroke="black" d="M135.54,-81.35C134.39,-91.29 136.87,-100.25 142.98,-100.25 147.84,-100.25 150.41,-94.56 150.67,-87.22"/>
<polygon fill="black" stroke="black" points="152.38,-87.27 150.42,-82.35 148.88,-87.42 152.38,-87.27"/>
<text text-anchor="middle" x="142.98" y="-102.7" font-family="Times New Roman,serif" font-size="14.00">a</text>
</g>
<!-- q1&#45;&gt;q2 -->
<g id="edge5" class="edge">
<title>q1&#45;&gt;q2</title>
<path fill="none" stroke="black" d="M161.75,-54.25C173.7,-48.96 189.67,-41.88 203.13,-35.91"/>
<polygon fill="black" stroke="black" points="203.48,-37.23 207.34,-33.6 202.06,-34.03 203.48,-37.23"/>
<text text-anchor="middle" x="184.85" y="-47.58" font-family="Times New Roman,serif" font-size="14.00">b</text>
</g>
<!-- q2&#45;&gt;q2 -->
<g id="edge6" class="edge">
<title>q2&#45;&gt;q2</title>
<path fill="none" stroke="black" d="M226.46,-48.37C226.21,-58.09 227.64,-66.25 230.73,-66.25 233.19,-66.25 234.6,-61.07 234.95,-54.04"/>
<polygon fill="black" stroke="black" points="236.7,-54.39 235.01,-49.37 233.2,-54.35 236.7,-54.39"/>
<text text-anchor="middle" x="230.73" y="-68.7" font-family="Times New Roman,serif" font-size="14.00">a</text>
</g>
<!-- q2&#45;&gt;q2 -->
<g id="edge7" class="edge">
<title>q2&#45;&gt;q2</title>
<path fill="none" stroke="black" d="M223.24,-47.58C220.44,-65.73 222.94,-84.25 230.73,-84.25 237.67,-84.25 240.41,-69.56 238.95,-53.52"/>
<polygon fill="black" stroke="black" points="240.57,-53.33 238.22,-48.58 237.09,-53.75 240.57,-53.33"/>
<text text-anchor="middle" x="230.73" y="-86.7" font-family="Times New Roman,serif" font-size="14.00">b</text>
</g>
</g>
</svg>
