<?xml version="1.0" encoding="UTF-8" standalone="no"?>
<!DOCTYPE svg PUBLIC "-//W3C//DTD SVG 1.1//EN"
 "http://www.w3.org/Graphics/SVG/1.1/DTD/svg11.dtd">
<!-- Generated by graphviz version 8.0.5 (20230430.1635)
 -->
<!-- Pages: 1 -->
<svg width="514pt" height="670pt"
 viewBox="0.00 0.00 513.52 669.67" xmlns="http://www.w3.org/2000/svg" xmlns:xlink="http://www.w3.org/1999/xlink">
<g id="graph0" class="graph" transform="scale(1 1) rotate(0) translate(4 665.67)">
<polygon fill="white" stroke="none" points="-4,4 -4,-665.67 509.52,-665.67 509.52,4 -4,4"/>
<!-- i -->
<g id="node1" class="node">
<title>i</title>
<ellipse fill="black" stroke="black" cx="1.8" cy="-262.08" rx="1.8" ry="1.8"/>
</g>
<!-- {q0,q1} -->
<g id="node2" class="node">
<title>{q0,q1}</title>
<ellipse fill="none" stroke="black" cx="81.68" cy="-262.08" rx="41.08" ry="41.08"/>
<text text-anchor="middle" x="81.68" y="-256.66" font-family="Times New Roman,serif" font-size="14.00">{q0,q1}</text>
</g>
<!-- i&#45;&gt;{q0,q1} -->
<g id="edge1" class="edge">
<title>i&#45;&gt;{q0,q1}</title>
<path fill="none" stroke="black" d="M3.9,-262.08C7.66,-262.08 20.51,-262.08 34.65,-262.08"/>
<polygon fill="black" stroke="black" points="34.33,-263.83 39.33,-262.08 34.33,-260.33 34.33,-263.83"/>
</g>
<!-- {q2,q3} -->
<g id="node3" class="node">
<title>{q2,q3}</title>
<ellipse fill="none" stroke="black" cx="206.6" cy="-313.08" rx="41.08" ry="41.08"/>
<text text-anchor="middle" x="206.6" y="-307.66" font-family="Times New Roman,serif" font-size="14.00">{q2,q3}</text>
</g>
<!-- {q0,q1}&#45;&gt;{q2,q3} -->
<g id="edge2" class="edge">
<title>{q0,q1}&#45;&gt;{q2,q3}</title>
<path fill="none" stroke="black" d="M120.23,-277.66C133.69,-283.25 148.97,-289.59 162.84,-295.34"/>
<polygon fill="black" stroke="black" points="162,-297.3 167.28,-297.6 163.34,-294.07 162,-297.3"/>
<text text-anchor="middle" x="144.14" y="-289.53" font-family="Times New Roman,serif" font-size="14.00">0</text>
</g>
<!-- {q6,q3} -->
<g id="node7" class="node">
<title>{q6,q3}</title>
<ellipse fill="none" stroke="black" cx="206.6" cy="-213.08" rx="41.08" ry="41.08"/>
<text text-anchor="middle" x="206.6" y="-207.66" font-family="Times New Roman,serif" font-size="14.00">{q6,q3}</text>
</g>
<!-- {q0,q1}&#45;&gt;{q6,q3} -->
<g id="edge3" class="edge">
<title>{q0,q1}&#45;&gt;{q6,q3}</title>
<path fill="none" stroke="black" d="M120.23,-247.12C133.57,-241.8 148.69,-235.77 162.46,-230.28"/>
<polygon fill="black" stroke="black" points="162.86,-231.61 166.86,-228.13 161.57,-228.35 162.86,-231.61"/>
<text text-anchor="middle" x="144.14" y="-240.53" font-family="Times New Roman,serif" font-size="14.00">1</text>
</g>
<!-- {q4,q5} -->
<g id="node4" class="node">
<title>{q4,q5}</title>
<ellipse fill="none" stroke="black" cx="331.52" cy="-377.08" rx="41.08" ry="41.08"/>
<text text-anchor="middle" x="331.52" y="-371.66" font-family="Times New Roman,serif" font-size="14.00">{q4,q5}</text>
</g>
<!-- {q2,q3}&#45;&gt;{q4,q5} -->
<g id="edge4" class="edge">
<title>{q2,q3}&#45;&gt;{q4,q5}</title>
<path fill="none" stroke="black" d="M243.49,-331.77C258,-339.33 274.83,-348.09 289.8,-355.88"/>
<polygon fill="black" stroke="black" points="288.56,-357.73 293.8,-358.49 290.18,-354.63 288.56,-357.73"/>
<text text-anchor="middle" x="269.06" y="-347.53" font-family="Times New Roman,serif" font-size="14.00">0</text>
</g>
<!-- {q6,q5} -->
<g id="node8" class="node">
<title>{q6,q5}</title>
<ellipse fill="none" stroke="black" cx="331.52" cy="-209.08" rx="41.08" ry="41.08"/>
<text text-anchor="middle" x="331.52" y="-203.66" font-family="Times New Roman,serif" font-size="14.00">{q6,q5}</text>
</g>
<!-- {q2,q3}&#45;&gt;{q6,q5} -->
<g id="edge5" class="edge">
<title>{q2,q3}&#45;&gt;{q6,q5}</title>
<path fill="none" stroke="black" d="M238.62,-286.84C255.8,-272.31 277.22,-254.18 295.06,-239.09"/>
<polygon fill="black" stroke="black" points="295.83,-239.88 298.51,-235.32 293.56,-237.21 295.83,-239.88"/>
<text text-anchor="middle" x="269.06" y="-263.53" font-family="Times New Roman,serif" font-size="14.00">1</text>
</g>
<!-- {q4,q7} -->
<g id="node5" class="node">
<title>{q4,q7}</title>
<ellipse fill="none" stroke="black" cx="460.44" cy="-549.08" rx="41.08" ry="41.08"/>
<ellipse fill="none" stroke="black" cx="460.44" cy="-549.08" rx="45.08" ry="45.08"/>
<text text-anchor="middle" x="460.44" y="-543.66" font-family="Times New Roman,serif" font-size="14.00">{q4,q7}</text>
</g>
<!-- {q4,q5}&#45;&gt;{q4,q7} -->
<g id="edge6" class="edge">
<title>{q4,q5}&#45;&gt;{q4,q7}</title>
<path fill="none" stroke="black" d="M355.27,-410.86C371.57,-434.71 394.27,-467.25 415.35,-495.08 419.1,-500.03 423.12,-505.17 427.15,-510.21"/>
<polygon fill="black" stroke="black" points="426.34,-511.01 430.84,-513.81 429.07,-508.82 426.34,-511.01"/>
<text text-anchor="middle" x="393.98" y="-471.53" font-family="Times New Roman,serif" font-size="14.00">0</text>
</g>
<!-- {q4,q9} -->
<g id="node6" class="node">
<title>{q4,q9}</title>
<ellipse fill="none" stroke="black" cx="460.44" cy="-377.08" rx="41.08" ry="41.08"/>
<text text-anchor="middle" x="460.44" y="-371.66" font-family="Times New Roman,serif" font-size="14.00">{q4,q9}</text>
</g>
<!-- {q4,q5}&#45;&gt;{q4,q9} -->
<g id="edge7" class="edge">
<title>{q4,q5}&#45;&gt;{q4,q9}</title>
<path fill="none" stroke="black" d="M373.03,-377.08C385.73,-377.08 399.86,-377.08 412.95,-377.08"/>
<polygon fill="black" stroke="black" points="412.88,-378.83 417.88,-377.08 412.88,-375.33 412.88,-378.83"/>
<text text-anchor="middle" x="393.98" y="-379.53" font-family="Times New Roman,serif" font-size="14.00">1</text>
</g>
<!-- {q4,q7}&#45;&gt;{q4,q7} -->
<g id="edge8" class="edge">
<title>{q4,q7}&#45;&gt;{q4,q7}</title>
<path fill="none" stroke="black" d="M454.34,-594.16C454.87,-604.54 456.9,-612.17 460.44,-612.17 463.26,-612.17 465.12,-607.33 466.02,-600.11"/>
<polygon fill="black" stroke="black" points="467.85,-600.29 466.53,-595.16 464.36,-600 467.85,-600.29"/>
<text text-anchor="middle" x="460.44" y="-614.62" font-family="Times New Roman,serif" font-size="14.00">0</text>
</g>
<!-- {q4,q7}&#45;&gt;{q4,q7} -->
<g id="edge9" class="edge">
<title>{q4,q7}&#45;&gt;{q4,q7}</title>
<path fill="none" stroke="black" d="M448.2,-592.88C446.95,-612.83 451.03,-630.17 460.44,-630.17 468.89,-630.17 473.05,-616.17 472.89,-598.86"/>
<polygon fill="black" stroke="black" points="474.61,-598.81 472.68,-593.88 471.11,-598.94 474.61,-598.81"/>
<text text-anchor="middle" x="460.44" y="-632.62" font-family="Times New Roman,serif" font-size="14.00">1</text>
</g>
<!-- {q4,q9}&#45;&gt;{q4,q9} -->
<g id="edge10" class="edge">
<title>{q4,q9}&#45;&gt;{q4,q9}</title>
<path fill="none" stroke="black" d="M454.28,-417.95C454.69,-428.36 456.74,-436.17 460.44,-436.17 463.39,-436.17 465.29,-431.21 466.14,-423.93"/>
<polygon fill="black" stroke="black" points="467.96,-424.07 466.59,-418.95 464.47,-423.81 467.96,-424.07"/>
<text text-anchor="middle" x="460.44" y="-438.62" font-family="Times New Roman,serif" font-size="14.00">0</text>
</g>
<!-- {q4,q9}&#45;&gt;{q4,q9} -->
<g id="edge11" class="edge">
<title>{q4,q9}&#45;&gt;{q4,q9}</title>
<path fill="none" stroke="black" d="M448.34,-416.75C446.67,-436.52 450.7,-454.17 460.44,-454.17 469.18,-454.17 473.33,-439.93 472.86,-422.69"/>
<polygon fill="black" stroke="black" points="474.56,-422.64 472.53,-417.75 471.06,-422.84 474.56,-422.64"/>
<text text-anchor="middle" x="460.44" y="-456.62" font-family="Times New Roman,serif" font-size="14.00">1</text>
</g>
<!-- {q6,q3}&#45;&gt;{q6,q5} -->
<g id="edge12" class="edge">
<title>{q6,q3}&#45;&gt;{q6,q5}</title>
<path fill="none" stroke="black" d="M247.35,-220.83C255.63,-221.64 264.31,-221.91 272.44,-221.08 276.59,-220.66 280.89,-220.07 285.18,-219.37"/>
<polygon fill="black" stroke="black" points="285.38,-220.94 290.01,-218.37 284.78,-217.49 285.38,-220.94"/>
<text text-anchor="middle" x="269.06" y="-224.53" font-family="Times New Roman,serif" font-size="14.00">0</text>
</g>
<!-- {q6,q3}&#45;&gt;{q6,q5} -->
<g id="edge13" class="edge">
<title>{q6,q3}&#45;&gt;{q6,q5}</title>
<path fill="none" stroke="black" d="M247.12,-203.99C253.3,-202.89 259.65,-201.94 265.69,-201.33 271.9,-200.71 278.45,-200.72 284.9,-201.11"/>
<polygon fill="black" stroke="black" points="284.65,-202.92 289.77,-201.57 284.93,-199.43 284.65,-202.92"/>
<text text-anchor="middle" x="269.06" y="-204.53" font-family="Times New Roman,serif" font-size="14.00">1</text>
</g>
<!-- {q6,q7} -->
<g id="node9" class="node">
<title>{q6,q7}</title>
<ellipse fill="none" stroke="black" cx="460.44" cy="-209.08" rx="41.08" ry="41.08"/>
<text text-anchor="middle" x="460.44" y="-203.66" font-family="Times New Roman,serif" font-size="14.00">{q6,q7}</text>
</g>
<!-- {q6,q5}&#45;&gt;{q6,q7} -->
<g id="edge14" class="edge">
<title>{q6,q5}&#45;&gt;{q6,q7}</title>
<path fill="none" stroke="black" d="M373.03,-209.08C385.73,-209.08 399.86,-209.08 412.95,-209.08"/>
<polygon fill="black" stroke="black" points="412.88,-210.83 417.88,-209.08 412.88,-207.33 412.88,-210.83"/>
<text text-anchor="middle" x="393.98" y="-211.53" font-family="Times New Roman,serif" font-size="14.00">0</text>
</g>
<!-- {q6,q9} -->
<g id="node10" class="node">
<title>{q6,q9}</title>
<ellipse fill="none" stroke="black" cx="460.44" cy="-41.08" rx="41.08" ry="41.08"/>
<text text-anchor="middle" x="460.44" y="-35.66" font-family="Times New Roman,serif" font-size="14.00">{q6,q9}</text>
</g>
<!-- {q6,q5}&#45;&gt;{q6,q9} -->
<g id="edge15" class="edge">
<title>{q6,q5}&#45;&gt;{q6,q9}</title>
<path fill="none" stroke="black" d="M356.99,-176.69C378.26,-148.54 409.06,-107.77 431.33,-78.29"/>
<polygon fill="black" stroke="black" points="433.21,-79.71 434.83,-74.66 430.42,-77.6 433.21,-79.71"/>
<text text-anchor="middle" x="393.98" y="-133.53" font-family="Times New Roman,serif" font-size="14.00">1</text>
</g>
<!-- {q6,q7}&#45;&gt;{q6,q7} -->
<g id="edge16" class="edge">
<title>{q6,q7}&#45;&gt;{q6,q7}</title>
<path fill="none" stroke="black" d="M454.28,-249.95C454.69,-260.36 456.74,-268.17 460.44,-268.17 463.39,-268.17 465.29,-263.21 466.14,-255.93"/>
<polygon fill="black" stroke="black" points="467.96,-256.07 466.59,-250.95 464.47,-255.81 467.96,-256.07"/>
<text text-anchor="middle" x="460.44" y="-270.62" font-family="Times New Roman,serif" font-size="14.00">0</text>
</g>
<!-- {q6,q7}&#45;&gt;{q6,q7} -->
<g id="edge17" class="edge">
<title>{q6,q7}&#45;&gt;{q6,q7}</title>
<path fill="none" stroke="black" d="M448.34,-248.75C446.67,-268.52 450.7,-286.17 460.44,-286.17 469.18,-286.17 473.33,-271.93 472.86,-254.69"/>
<polygon fill="black" stroke="black" points="474.56,-254.64 472.53,-249.75 471.06,-254.84 474.56,-254.64"/>
<text text-anchor="middle" x="460.44" y="-288.62" font-family="Times New Roman,serif" font-size="14.00">1</text>
</g>
<!-- {q6,q9}&#45;&gt;{q6,q9} -->
<g id="edge18" class="edge">
<title>{q6,q9}&#45;&gt;{q6,q9}</title>
<path fill="none" stroke="black" d="M454.28,-81.95C454.69,-92.36 456.74,-100.17 460.44,-100.17 463.39,-100.17 465.29,-95.21 466.14,-87.93"/>
<polygon fill="black" stroke="black" points="467.96,-88.07 466.59,-82.95 464.47,-87.81 467.96,-88.07"/>
<text text-anchor="middle" x="460.44" y="-102.62" font-family="Times New Roman,serif" font-size="14.00">0</text>
</g>
<!-- {q6,q9}&#45;&gt;{q6,q9} -->
<g id="edge19" class="edge">
<title>{q6,q9}&#45;&gt;{q6,q9}</title>
<path fill="none" stroke="black" d="M448.34,-80.75C446.67,-100.52 450.7,-118.17 460.44,-118.17 469.18,-118.17 473.33,-103.93 472.86,-86.69"/>
<polygon fill="black" stroke="black" points="474.56,-86.64 472.53,-81.75 471.06,-86.84 474.56,-86.64"/>
<text text-anchor="middle" x="460.44" y="-120.62" font-family="Times New Roman,serif" font-size="14.00">1</text>
</g>
</g>
</svg>
