<?xml version="1.0" encoding="UTF-8" standalone="no"?>
<!DOCTYPE svg PUBLIC "-//W3C//DTD SVG 1.1//EN"
 "http://www.w3.org/Graphics/SVG/1.1/DTD/svg11.dtd">
<!-- Generated by graphviz version 8.0.5 (20230430.1635)
 -->
<!-- Pages: 1 -->
<svg width="285pt" height="106pt"
 viewBox="0.00 0.00 285.31 105.95" xmlns="http://www.w3.org/2000/svg" xmlns:xlink="http://www.w3.org/1999/xlink">
<g id="graph0" class="graph" transform="scale(1 1) rotate(0) translate(4 101.95)">
<polygon fill="white" stroke="none" points="-4,4 -4,-101.95 281.31,-101.95 281.31,4 -4,4"/>
<!-- i -->
<g id="node1" class="node">
<title>i</title>
<ellipse fill="black" stroke="black" cx="1.8" cy="-32.1" rx="1.8" ry="1.8"/>
</g>
<!-- q0 -->
<g id="node2" class="node">
<title>q0</title>
<ellipse fill="none" stroke="black" cx="60.73" cy="-32.1" rx="20.13" ry="20.13"/>
<text text-anchor="middle" x="60.73" y="-26.68" font-family="Times New Roman,serif" font-size="14.00">q0</text>
</g>
<!-- i&#45;&gt;q0 -->
<g id="edge1" class="edge">
<title>i&#45;&gt;q0</title>
<path fill="none" stroke="black" d="M3.79,-32.1C7.55,-32.1 21.44,-32.1 34.43,-32.1"/>
<polygon fill="black" stroke="black" points="34.3,-33.85 39.3,-32.1 34.3,-30.35 34.3,-33.85"/>
</g>
<!-- q1;q2 -->
<g id="node4" class="node">
<title>q1;q2</title>
<ellipse fill="none" stroke="black" cx="154.95" cy="-32.1" rx="32.1" ry="32.1"/>
<text text-anchor="middle" x="154.95" y="-26.68" font-family="Times New Roman,serif" font-size="14.00">q1;q2</text>
</g>
<!-- q0&#45;&gt;q1;q2 -->
<g id="edge2" class="edge">
<title>q0&#45;&gt;q1;q2</title>
<path fill="none" stroke="black" d="M81.29,-32.1C91.55,-32.1 104.49,-32.1 116.59,-32.1"/>
<polygon fill="black" stroke="black" points="116.45,-33.85 121.45,-32.1 116.45,-30.35 116.45,-33.85"/>
<text text-anchor="middle" x="101.85" y="-34.55" font-family="Times New Roman,serif" font-size="14.00">a</text>
</g>
<!-- q3 -->
<g id="node3" class="node">
<title>q3</title>
<ellipse fill="none" stroke="black" cx="253.18" cy="-32.1" rx="20.13" ry="20.13"/>
<ellipse fill="none" stroke="black" cx="253.18" cy="-32.1" rx="24.13" ry="24.13"/>
<text text-anchor="middle" x="253.18" y="-26.68" font-family="Times New Roman,serif" font-size="14.00">q3</text>
</g>
<!-- q1;q2&#45;&gt;q3 -->
<g id="edge3" class="edge">
<title>q1;q2&#45;&gt;q3</title>
<path fill="none" stroke="black" d="M187.46,-32.1C198.95,-32.1 211.87,-32.1 223.13,-32.1"/>
<polygon fill="black" stroke="black" points="222.85,-33.85 227.85,-32.1 222.85,-30.35 222.85,-33.85"/>
<text text-anchor="middle" x="208.06" y="-34.55" font-family="Times New Roman,serif" font-size="14.00">a</text>
</g>
<!-- q1;q2&#45;&gt;q1;q2 -->
<g id="edge4" class="edge">
<title>q1;q2&#45;&gt;q1;q2</title>
<path fill="none" stroke="black" d="M145,-62.93C144.89,-73.59 148.21,-82.2 154.95,-82.2 160.43,-82.2 163.65,-76.52 164.61,-68.66"/>
<polygon fill="black" stroke="black" points="166.39,-69.01 164.91,-63.93 162.9,-68.83 166.39,-69.01"/>
<text text-anchor="middle" x="154.95" y="-84.65" font-family="Times New Roman,serif" font-size="14.00">b</text>
</g>
</g>
</svg>
