<?xml version="1.0" encoding="UTF-8" standalone="no"?>
<!DOCTYPE svg PUBLIC "-//W3C//DTD SVG 1.1//EN"
 "http://www.w3.org/Graphics/SVG/1.1/DTD/svg11.dtd">
<!-- Generated by graphviz version 8.0.5 (20230430.1635)
 -->
<!-- Pages: 1 -->
<svg width="345pt" height="136pt"
 viewBox="0.00 0.00 345.11 136.00" xmlns="http://www.w3.org/2000/svg" xmlns:xlink="http://www.w3.org/1999/xlink">
<g id="graph0" class="graph" transform="scale(1 1) rotate(0) translate(4 132)">
<polygon fill="white" stroke="none" points="-4,4 -4,-132 341.11,-132 341.11,4 -4,4"/>
<!-- i -->
<g id="node1" class="node">
<title>i</title>
<ellipse fill="black" stroke="black" cx="1.8" cy="-36.13" rx="1.8" ry="1.8"/>
</g>
<!-- q0 -->
<g id="node2" class="node">
<title>q0</title>
<ellipse fill="none" stroke="black" cx="60.73" cy="-36.13" rx="20.13" ry="20.13"/>
<text text-anchor="middle" x="60.73" y="-30.7" font-family="Times New Roman,serif" font-size="14.00">q0</text>
</g>
<!-- i&#45;&gt;q0 -->
<g id="edge1" class="edge">
<title>i&#45;&gt;q0</title>
<path fill="none" stroke="black" d="M3.79,-36.13C7.55,-36.13 21.44,-36.13 34.43,-36.13"/>
<polygon fill="black" stroke="black" points="34.3,-37.88 39.3,-36.13 34.3,-34.38 34.3,-37.88"/>
</g>
<!-- q1 -->
<g id="node3" class="node">
<title>q1</title>
<ellipse fill="none" stroke="black" cx="142.98" cy="-74.13" rx="20.13" ry="20.13"/>
<text text-anchor="middle" x="142.98" y="-68.7" font-family="Times New Roman,serif" font-size="14.00">q1</text>
</g>
<!-- q0&#45;&gt;q1 -->
<g id="edge2" class="edge">
<title>q0&#45;&gt;q1</title>
<path fill="none" stroke="black" d="M79.54,-44.56C91.17,-50.07 106.48,-57.32 119.03,-63.26"/>
<polygon fill="black" stroke="black" points="117.95,-65.16 123.22,-65.72 119.45,-61.99 117.95,-65.16"/>
<text text-anchor="middle" x="101.85" y="-59.58" font-family="Times New Roman,serif" font-size="14.00">a</text>
</g>
<!-- q2 -->
<g id="node4" class="node">
<title>q2</title>
<ellipse fill="none" stroke="black" cx="226.73" cy="-20.13" rx="20.13" ry="20.13"/>
<text text-anchor="middle" x="226.73" y="-14.7" font-family="Times New Roman,serif" font-size="14.00">q2</text>
</g>
<!-- q0&#45;&gt;q2 -->
<g id="edge3" class="edge">
<title>q0&#45;&gt;q2</title>
<path fill="none" stroke="black" d="M80.99,-33.9C93.02,-32.53 108.83,-30.78 122.85,-29.38 149.32,-26.72 179.66,-24.04 200.5,-22.25"/>
<polygon fill="black" stroke="black" points="200.55,-23.92 205.38,-21.75 200.25,-20.43 200.55,-23.92"/>
<text text-anchor="middle" x="142.98" y="-32.58" font-family="Times New Roman,serif" font-size="14.00">a</text>
</g>
<!-- q1&#45;&gt;q1 -->
<g id="edge5" class="edge">
<title>q1&#45;&gt;q1</title>
<path fill="none" stroke="black" d="M135.54,-93.35C134.39,-103.29 136.87,-112.25 142.98,-112.25 147.84,-112.25 150.41,-106.56 150.67,-99.22"/>
<polygon fill="black" stroke="black" points="152.38,-99.27 150.42,-94.35 148.88,-99.42 152.38,-99.27"/>
<text text-anchor="middle" x="142.98" y="-114.7" font-family="Times New Roman,serif" font-size="14.00">b</text>
</g>
<!-- q1&#45;&gt;q2 -->
<g id="edge6" class="edge">
<title>q1&#45;&gt;q2</title>
<path fill="none" stroke="black" d="M160.13,-63.46C172.81,-55.08 190.58,-43.34 204.43,-34.2"/>
<polygon fill="black" stroke="black" points="205.13,-35.17 208.33,-30.96 203.2,-32.25 205.13,-35.17"/>
<text text-anchor="middle" x="184.85" y="-51.58" font-family="Times New Roman,serif" font-size="14.00">b</text>
</g>
<!-- q3 -->
<g id="node5" class="node">
<title>q3</title>
<ellipse fill="none" stroke="black" cx="312.98" cy="-65.13" rx="20.13" ry="20.13"/>
<ellipse fill="none" stroke="black" cx="312.98" cy="-65.13" rx="24.13" ry="24.13"/>
<text text-anchor="middle" x="312.98" y="-59.7" font-family="Times New Roman,serif" font-size="14.00">q3</text>
</g>
<!-- q1&#45;&gt;q3 -->
<g id="edge4" class="edge">
<title>q1&#45;&gt;q3</title>
<path fill="none" stroke="black" d="M163,-78.31C183.69,-82.27 217.72,-87.08 246.86,-83.13 259.34,-81.43 272.82,-77.99 284.25,-74.57"/>
<polygon fill="black" stroke="black" points="284.43,-76.04 288.69,-72.89 283.4,-72.69 284.43,-76.04"/>
<text text-anchor="middle" x="226.73" y="-86.58" font-family="Times New Roman,serif" font-size="14.00">a</text>
</g>
<!-- q2&#45;&gt;q2 -->
<g id="edge8" class="edge">
<title>q2&#45;&gt;q2</title>
<path fill="none" stroke="black" d="M219.29,-39.35C218.15,-49.29 220.63,-58.25 226.73,-58.25 231.6,-58.25 234.16,-52.56 234.42,-45.22"/>
<polygon fill="black" stroke="black" points="236.13,-45.27 234.17,-40.35 232.63,-45.42 236.13,-45.27"/>
<text text-anchor="middle" x="226.73" y="-60.7" font-family="Times New Roman,serif" font-size="14.00">b</text>
</g>
<!-- q2&#45;&gt;q3 -->
<g id="edge7" class="edge">
<title>q2&#45;&gt;q3</title>
<path fill="none" stroke="black" d="M244.78,-29.23C256.58,-35.54 272.51,-44.04 285.9,-51.19"/>
<polygon fill="black" stroke="black" points="284.84,-53.15 290.08,-53.96 286.49,-50.06 284.84,-53.15"/>
<text text-anchor="middle" x="267.86" y="-45.58" font-family="Times New Roman,serif" font-size="14.00">a</text>
</g>
</g>
</svg>
