<?xml version="1.0" encoding="UTF-8" standalone="no"?>
<!DOCTYPE svg PUBLIC "-//W3C//DTD SVG 1.1//EN"
 "http://www.w3.org/Graphics/SVG/1.1/DTD/svg11.dtd">
<!-- Generated by graphviz version 8.0.5 (20230430.1635)
 -->
<!-- Pages: 1 -->
<svg width="344pt" height="124pt"
 viewBox="0.00 0.00 344.36 124.00" xmlns="http://www.w3.org/2000/svg" xmlns:xlink="http://www.w3.org/1999/xlink">
<g id="graph0" class="graph" transform="scale(1 1) rotate(0) translate(4 120)">
<polygon fill="white" stroke="none" points="-4,4 -4,-120 340.36,-120 340.36,4 -4,4"/>
<!-- i -->
<g id="node1" class="node">
<title>i</title>
<ellipse fill="black" stroke="black" cx="1.8" cy="-24.13" rx="1.8" ry="1.8"/>
</g>
<!-- q0 -->
<g id="node2" class="node">
<title>q0</title>
<ellipse fill="none" stroke="black" cx="60.73" cy="-24.13" rx="20.13" ry="20.13"/>
<text text-anchor="middle" x="60.73" y="-18.7" font-family="Times New Roman,serif" font-size="14.00">q0</text>
</g>
<!-- i&#45;&gt;q0 -->
<g id="edge1" class="edge">
<title>i&#45;&gt;q0</title>
<path fill="none" stroke="black" d="M3.79,-24.13C7.55,-24.13 21.44,-24.13 34.43,-24.13"/>
<polygon fill="black" stroke="black" points="34.3,-25.88 39.3,-24.13 34.3,-22.38 34.3,-25.88"/>
</g>
<!-- q1 -->
<g id="node3" class="node">
<title>q1</title>
<ellipse fill="none" stroke="black" cx="142.98" cy="-62.13" rx="20.13" ry="20.13"/>
<text text-anchor="middle" x="142.98" y="-56.7" font-family="Times New Roman,serif" font-size="14.00">q1</text>
</g>
<!-- q0&#45;&gt;q1 -->
<g id="edge2" class="edge">
<title>q0&#45;&gt;q1</title>
<path fill="none" stroke="black" d="M79.54,-32.56C91.17,-38.07 106.48,-45.32 119.03,-51.26"/>
<polygon fill="black" stroke="black" points="117.95,-53.16 123.22,-53.72 119.45,-49.99 117.95,-53.16"/>
<text text-anchor="middle" x="101.85" y="-46.58" font-family="Times New Roman,serif" font-size="14.00">a</text>
</g>
<!-- q2 -->
<g id="node4" class="node">
<title>q2</title>
<ellipse fill="none" stroke="black" cx="225.98" cy="-24.13" rx="20.13" ry="20.13"/>
<text text-anchor="middle" x="225.98" y="-18.7" font-family="Times New Roman,serif" font-size="14.00">q2</text>
</g>
<!-- q0&#45;&gt;q2 -->
<g id="edge3" class="edge">
<title>q0&#45;&gt;q2</title>
<path fill="none" stroke="black" d="M80.95,-21.45C92.97,-19.92 108.78,-18.15 122.85,-17.38 140.72,-16.39 145.24,-16.4 163.1,-17.38 175.33,-18.04 188.84,-19.44 200.12,-20.79"/>
<polygon fill="black" stroke="black" points="199.62,-22.61 204.79,-21.49 200.04,-19.14 199.62,-22.61"/>
<text text-anchor="middle" x="142.98" y="-20.58" font-family="Times New Roman,serif" font-size="14.00">a</text>
</g>
<!-- q1&#45;&gt;q1 -->
<g id="edge4" class="edge">
<title>q1&#45;&gt;q1</title>
<path fill="none" stroke="black" d="M135.54,-81.35C134.39,-91.29 136.87,-100.25 142.98,-100.25 147.84,-100.25 150.41,-94.56 150.67,-87.22"/>
<polygon fill="black" stroke="black" points="152.38,-87.27 150.42,-82.35 148.88,-87.42 152.38,-87.27"/>
<text text-anchor="middle" x="142.98" y="-102.7" font-family="Times New Roman,serif" font-size="14.00">b</text>
</g>
<!-- q1&#45;&gt;q2 -->
<g id="edge5" class="edge">
<title>q1&#45;&gt;q2</title>
<path fill="none" stroke="black" d="M161.55,-53.88C173.36,-48.34 189.04,-40.98 201.86,-34.97"/>
<polygon fill="black" stroke="black" points="202.38,-36.19 206.16,-32.49 200.89,-33.03 202.38,-36.19"/>
<text text-anchor="middle" x="184.48" y="-46.58" font-family="Times New Roman,serif" font-size="14.00">$</text>
</g>
<!-- q2&#45;&gt;q2 -->
<g id="edge7" class="edge">
<title>q2&#45;&gt;q2</title>
<path fill="none" stroke="black" d="M218.54,-43.35C217.4,-53.29 219.88,-62.25 225.98,-62.25 230.85,-62.25 233.41,-56.56 233.67,-49.22"/>
<polygon fill="black" stroke="black" points="235.38,-49.27 233.42,-44.35 231.88,-49.42 235.38,-49.27"/>
<text text-anchor="middle" x="225.98" y="-64.7" font-family="Times New Roman,serif" font-size="14.00">b</text>
</g>
<!-- q3 -->
<g id="node5" class="node">
<title>q3</title>
<ellipse fill="none" stroke="black" cx="312.23" cy="-24.13" rx="20.13" ry="20.13"/>
<ellipse fill="none" stroke="black" cx="312.23" cy="-24.13" rx="24.13" ry="24.13"/>
<text text-anchor="middle" x="312.23" y="-18.7" font-family="Times New Roman,serif" font-size="14.00">q3</text>
</g>
<!-- q2&#45;&gt;q3 -->
<g id="edge6" class="edge">
<title>q2&#45;&gt;q3</title>
<path fill="none" stroke="black" d="M246.52,-24.13C257.04,-24.13 270.22,-24.13 281.93,-24.13"/>
<polygon fill="black" stroke="black" points="281.9,-25.88 286.9,-24.13 281.9,-22.38 281.9,-25.88"/>
<text text-anchor="middle" x="267.11" y="-26.58" font-family="Times New Roman,serif" font-size="14.00">a</text>
</g>
</g>
</svg>
