<?xml version="1.0" encoding="UTF-8" standalone="no"?>
<!DOCTYPE svg PUBLIC "-//W3C//DTD SVG 1.1//EN"
 "http://www.w3.org/Graphics/SVG/1.1/DTD/svg11.dtd">
<!-- Generated by graphviz version 8.0.5 (20230430.1635)
 -->
<!-- Pages: 1 -->
<svg width="205pt" height="114pt"
 viewBox="0.00 0.00 204.56 113.95" xmlns="http://www.w3.org/2000/svg" xmlns:xlink="http://www.w3.org/1999/xlink">
<g id="graph0" class="graph" transform="scale(1 1) rotate(0) translate(4 109.95)">
<polygon fill="white" stroke="none" points="-4,4 -4,-109.95 200.56,-109.95 200.56,4 -4,4"/>
<!-- i -->
<g id="node1" class="node">
<title>i</title>
<ellipse fill="black" stroke="black" cx="1.8" cy="-36.1" rx="1.8" ry="1.8"/>
</g>
<!-- q0 -->
<g id="node2" class="node">
<title>q0</title>
<ellipse fill="none" stroke="black" cx="60.73" cy="-36.1" rx="20.13" ry="20.13"/>
<text text-anchor="middle" x="60.73" y="-30.68" font-family="Times New Roman,serif" font-size="14.00">q0</text>
</g>
<!-- i&#45;&gt;q0 -->
<g id="edge1" class="edge">
<title>i&#45;&gt;q0</title>
<path fill="none" stroke="black" d="M3.79,-36.1C7.55,-36.1 21.44,-36.1 34.43,-36.1"/>
<polygon fill="black" stroke="black" points="34.3,-37.85 39.3,-36.1 34.3,-34.35 34.3,-37.85"/>
</g>
<!-- q0&#45;&gt;q0 -->
<g id="edge2" class="edge">
<title>q0&#45;&gt;q0</title>
<path fill="none" stroke="black" d="M53.74,-55.33C52.66,-65.27 54.99,-74.23 60.73,-74.23 65.3,-74.23 67.7,-68.54 67.95,-61.2"/>
<polygon fill="black" stroke="black" points="69.66,-61.25 67.71,-56.33 66.16,-61.39 69.66,-61.25"/>
<text text-anchor="middle" x="60.73" y="-76.68" font-family="Times New Roman,serif" font-size="14.00">a</text>
</g>
<!-- q0;q1 -->
<g id="node3" class="node">
<title>q0;q1</title>
<ellipse fill="none" stroke="black" cx="160.45" cy="-36.1" rx="32.1" ry="32.1"/>
<ellipse fill="none" stroke="black" cx="160.45" cy="-36.1" rx="36.1" ry="36.1"/>
<text text-anchor="middle" x="160.45" y="-30.68" font-family="Times New Roman,serif" font-size="14.00">q0;q1</text>
</g>
<!-- q0&#45;&gt;q0;q1 -->
<g id="edge3" class="edge">
<title>q0&#45;&gt;q0;q1</title>
<path fill="none" stroke="black" d="M81.03,-36.1C91.65,-36.1 105.24,-36.1 118.12,-36.1"/>
<polygon fill="black" stroke="black" points="117.97,-37.85 122.97,-36.1 117.97,-34.35 117.97,-37.85"/>
<text text-anchor="middle" x="102.6" y="-38.55" font-family="Times New Roman,serif" font-size="14.00">b</text>
</g>
<!-- q0;q1&#45;&gt;q0 -->
<g id="edge4" class="edge">
<title>q0;q1&#45;&gt;q0</title>
<path fill="none" stroke="black" d="M128.25,-18.92C118.87,-15.67 108.52,-13.94 98.85,-16.35 93.55,-17.68 88.17,-19.92 83.21,-22.42"/>
<polygon fill="black" stroke="black" points="82.6,-21.3 79.02,-25.22 84.26,-24.39 82.6,-21.3"/>
<text text-anchor="middle" x="102.6" y="-18.55" font-family="Times New Roman,serif" font-size="14.00">a</text>
</g>
<!-- q0;q1&#45;&gt;q0;q1 -->
<g id="edge5" class="edge">
<title>q0;q1&#45;&gt;q0;q1</title>
<path fill="none" stroke="black" d="M149.62,-70.97C149.84,-81.74 153.45,-90.2 160.45,-90.2 166.15,-90.2 169.6,-84.62 170.81,-76.74"/>
<polygon fill="black" stroke="black" points="172.62,-77.09 171.29,-71.97 169.13,-76.8 172.62,-77.09"/>
<text text-anchor="middle" x="160.45" y="-92.65" font-family="Times New Roman,serif" font-size="14.00">b</text>
</g>
</g>
</svg>
