<?xml version="1.0" encoding="UTF-8" standalone="no"?>
<!DOCTYPE svg PUBLIC "-//W3C//DTD SVG 1.1//EN"
 "http://www.w3.org/Graphics/SVG/1.1/DTD/svg11.dtd">
<!-- Generated by graphviz version 8.0.5 (20230430.1635)
 -->
<!-- Pages: 1 -->
<svg width="263pt" height="250pt"
 viewBox="0.00 0.00 262.86 249.75" xmlns="http://www.w3.org/2000/svg" xmlns:xlink="http://www.w3.org/1999/xlink">
<g id="graph0" class="graph" transform="scale(1 1) rotate(0) translate(4 245.75)">
<polygon fill="white" stroke="none" points="-4,4 -4,-245.75 258.86,-245.75 258.86,4 -4,4"/>
<!-- i -->
<g id="node1" class="node">
<title>i</title>
<ellipse fill="black" stroke="black" cx="1.8" cy="-36.13" rx="1.8" ry="1.8"/>
</g>
<!-- q0 -->
<g id="node2" class="node">
<title>q0</title>
<ellipse fill="none" stroke="black" cx="60.73" cy="-36.13" rx="20.13" ry="20.13"/>
<text text-anchor="middle" x="60.73" y="-30.7" font-family="Times New Roman,serif" font-size="14.00">q0</text>
</g>
<!-- i&#45;&gt;q0 -->
<g id="edge1" class="edge">
<title>i&#45;&gt;q0</title>
<path fill="none" stroke="black" d="M3.79,-36.13C7.55,-36.13 21.44,-36.13 34.43,-36.13"/>
<polygon fill="black" stroke="black" points="34.3,-37.88 39.3,-36.13 34.3,-34.38 34.3,-37.88"/>
</g>
<!-- q2 -->
<g id="node3" class="node">
<title>q2</title>
<ellipse fill="none" stroke="black" cx="143.73" cy="-74.13" rx="20.13" ry="20.13"/>
<text text-anchor="middle" x="143.73" y="-68.7" font-family="Times New Roman,serif" font-size="14.00">q2</text>
</g>
<!-- q0&#45;&gt;q2 -->
<g id="edge2" class="edge">
<title>q0&#45;&gt;q2</title>
<path fill="none" stroke="black" d="M79.3,-44.37C91.11,-49.91 106.79,-57.27 119.61,-63.28"/>
<polygon fill="black" stroke="black" points="118.64,-65.23 123.91,-65.77 120.12,-62.06 118.64,-65.23"/>
<text text-anchor="middle" x="102.23" y="-59.58" font-family="Times New Roman,serif" font-size="14.00">0</text>
</g>
<!-- q6 -->
<g id="node5" class="node">
<title>q6</title>
<ellipse fill="none" stroke="black" cx="230.73" cy="-20.13" rx="20.13" ry="20.13"/>
<text text-anchor="middle" x="230.73" y="-14.7" font-family="Times New Roman,serif" font-size="14.00">q6</text>
</g>
<!-- q0&#45;&gt;q6 -->
<g id="edge3" class="edge">
<title>q0&#45;&gt;q6</title>
<path fill="none" stroke="black" d="M81.22,-33.89C93.4,-32.52 109.41,-30.77 123.6,-29.38 151.36,-26.65 183.25,-23.93 204.77,-22.15"/>
<polygon fill="black" stroke="black" points="204.71,-23.83 209.55,-21.67 204.42,-20.34 204.71,-23.83"/>
<text text-anchor="middle" x="143.73" y="-32.58" font-family="Times New Roman,serif" font-size="14.00">1</text>
</g>
<!-- q4 -->
<g id="node4" class="node">
<title>q4</title>
<ellipse fill="none" stroke="black" cx="230.73" cy="-150.13" rx="20.13" ry="20.13"/>
<ellipse fill="none" stroke="black" cx="230.73" cy="-150.13" rx="24.13" ry="24.13"/>
<text text-anchor="middle" x="230.73" y="-144.7" font-family="Times New Roman,serif" font-size="14.00">q4</text>
</g>
<!-- q2&#45;&gt;q4 -->
<g id="edge4" class="edge">
<title>q2&#45;&gt;q4</title>
<path fill="none" stroke="black" d="M159.53,-87.36C172.93,-99.34 192.81,-117.12 208.01,-130.7"/>
<polygon fill="black" stroke="black" points="206.26,-131.39 211.16,-133.41 208.6,-128.78 206.26,-131.39"/>
<text text-anchor="middle" x="185.23" y="-114.58" font-family="Times New Roman,serif" font-size="14.00">0</text>
</g>
<!-- q2&#45;&gt;q6 -->
<g id="edge5" class="edge">
<title>q2&#45;&gt;q6</title>
<path fill="none" stroke="black" d="M161.12,-63.71C174.55,-55.18 193.68,-43.03 208.32,-33.73"/>
<polygon fill="black" stroke="black" points="208.82,-34.85 212.1,-30.69 206.94,-31.89 208.82,-34.85"/>
<text text-anchor="middle" x="185.23" y="-53.58" font-family="Times New Roman,serif" font-size="14.00">1</text>
</g>
<!-- q4&#45;&gt;q4 -->
<g id="edge6" class="edge">
<title>q4&#45;&gt;q4</title>
<path fill="none" stroke="black" d="M226.49,-174.37C226.25,-184.09 227.66,-192.25 230.73,-192.25 233.17,-192.25 234.57,-187.07 234.91,-180.04"/>
<polygon fill="black" stroke="black" points="236.67,-180.39 234.97,-175.37 233.17,-180.35 236.67,-180.39"/>
<text text-anchor="middle" x="230.73" y="-194.7" font-family="Times New Roman,serif" font-size="14.00">0</text>
</g>
<!-- q4&#45;&gt;q4 -->
<g id="edge7" class="edge">
<title>q4&#45;&gt;q4</title>
<path fill="none" stroke="black" d="M223.3,-173.58C220.52,-191.73 223,-210.25 230.73,-210.25 237.62,-210.25 240.33,-195.56 238.88,-179.52"/>
<polygon fill="black" stroke="black" points="240.5,-179.33 238.16,-174.58 237.03,-179.75 240.5,-179.33"/>
<text text-anchor="middle" x="230.73" y="-212.7" font-family="Times New Roman,serif" font-size="14.00">1</text>
</g>
<!-- q6&#45;&gt;q6 -->
<g id="edge8" class="edge">
<title>q6&#45;&gt;q6</title>
<path fill="none" stroke="black" d="M226.57,-40.13C226.06,-49.76 227.44,-58.25 230.73,-58.25 233.35,-58.25 234.76,-52.86 234.97,-45.8"/>
<polygon fill="black" stroke="black" points="236.71,-46.11 234.89,-41.13 233.21,-46.16 236.71,-46.11"/>
<text text-anchor="middle" x="230.73" y="-60.7" font-family="Times New Roman,serif" font-size="14.00">0</text>
</g>
<!-- q6&#45;&gt;q6 -->
<g id="edge9" class="edge">
<title>q6&#45;&gt;q6</title>
<path fill="none" stroke="black" d="M223.77,-39.39C220.28,-57.13 222.6,-76.25 230.73,-76.25 237.97,-76.25 240.6,-61.09 238.62,-45.24"/>
<polygon fill="black" stroke="black" points="240.21,-45.05 237.69,-40.39 236.75,-45.61 240.21,-45.05"/>
<text text-anchor="middle" x="230.73" y="-78.7" font-family="Times New Roman,serif" font-size="14.00">1</text>
</g>
</g>
</svg>
