<?xml version="1.0" encoding="UTF-8" standalone="no"?>
<!DOCTYPE svg PUBLIC "-//W3C//DTD SVG 1.1//EN"
 "http://www.w3.org/Graphics/SVG/1.1/DTD/svg11.dtd">
<!-- Generated by graphviz version 8.0.5 (20230430.1635)
 -->
<!-- Pages: 1 -->
<svg width="263pt" height="190pt"
 viewBox="0.00 0.00 262.86 190.00" xmlns="http://www.w3.org/2000/svg" xmlns:xlink="http://www.w3.org/1999/xlink">
<g id="graph0" class="graph" transform="scale(1 1) rotate(0) translate(4 186)">
<polygon fill="white" stroke="none" points="-4,4 -4,-186 258.86,-186 258.86,4 -4,4"/>
<!-- i -->
<g id="node1" class="node">
<title>i</title>
<ellipse fill="black" stroke="black" cx="1.8" cy="-73.13" rx="1.8" ry="1.8"/>
</g>
<!-- q0 -->
<g id="node2" class="node">
<title>q0</title>
<ellipse fill="none" stroke="black" cx="60.73" cy="-73.13" rx="20.13" ry="20.13"/>
<text text-anchor="middle" x="60.73" y="-67.7" font-family="Times New Roman,serif" font-size="14.00">q0</text>
</g>
<!-- i&#45;&gt;q0 -->
<g id="edge1" class="edge">
<title>i&#45;&gt;q0</title>
<path fill="none" stroke="black" d="M3.79,-73.13C7.55,-73.13 21.44,-73.13 34.43,-73.13"/>
<polygon fill="black" stroke="black" points="34.3,-74.88 39.3,-73.13 34.3,-71.38 34.3,-74.88"/>
</g>
<!-- q0&#45;&gt;q0 -->
<g id="edge2" class="edge">
<title>q0&#45;&gt;q0</title>
<path fill="none" stroke="black" d="M53.74,-92.35C52.66,-102.29 54.99,-111.25 60.73,-111.25 65.3,-111.25 67.7,-105.56 67.95,-98.22"/>
<polygon fill="black" stroke="black" points="69.66,-98.28 67.71,-93.35 66.16,-98.42 69.66,-98.28"/>
<text text-anchor="middle" x="60.73" y="-113.7" font-family="Times New Roman,serif" font-size="14.00">a</text>
</g>
<!-- q1 -->
<g id="node3" class="node">
<title>q1</title>
<ellipse fill="none" stroke="black" cx="146.98" cy="-124.13" rx="20.13" ry="20.13"/>
<ellipse fill="none" stroke="black" cx="146.98" cy="-124.13" rx="24.13" ry="24.13"/>
<text text-anchor="middle" x="146.98" y="-118.7" font-family="Times New Roman,serif" font-size="14.00">q1</text>
</g>
<!-- q0&#45;&gt;q1 -->
<g id="edge3" class="edge">
<title>q0&#45;&gt;q1</title>
<path fill="none" stroke="black" d="M78.37,-83.2C90.5,-90.54 107.15,-100.62 120.88,-108.94"/>
<polygon fill="black" stroke="black" points="119.62,-110.82 124.8,-111.91 121.43,-107.83 119.62,-110.82"/>
<text text-anchor="middle" x="101.85" y="-100.58" font-family="Times New Roman,serif" font-size="14.00">a</text>
</g>
<!-- q3 -->
<g id="node5" class="node">
<title>q3</title>
<ellipse fill="none" stroke="black" cx="146.98" cy="-24.13" rx="20.13" ry="20.13"/>
<ellipse fill="none" stroke="black" cx="146.98" cy="-24.13" rx="24.13" ry="24.13"/>
<text text-anchor="middle" x="146.98" y="-18.7" font-family="Times New Roman,serif" font-size="14.00">q3</text>
</g>
<!-- q0&#45;&gt;q3 -->
<g id="edge4" class="edge">
<title>q0&#45;&gt;q3</title>
<path fill="none" stroke="black" d="M78.78,-63.21C90.85,-56.19 107.25,-46.65 120.83,-38.75"/>
<polygon fill="black" stroke="black" points="121.25,-39.95 124.69,-35.93 119.49,-36.93 121.25,-39.95"/>
<text text-anchor="middle" x="101.85" y="-52.58" font-family="Times New Roman,serif" font-size="14.00">a</text>
</g>
<!-- q1&#45;&gt;q1 -->
<g id="edge5" class="edge">
<title>q1&#45;&gt;q1</title>
<path fill="none" stroke="black" d="M138.65,-147.09C137.86,-157.37 140.63,-166.25 146.98,-166.25 152.13,-166.25 154.93,-160.39 155.38,-152.68"/>
<polygon fill="black" stroke="black" points="157.12,-153.07 155.31,-148.09 153.62,-153.11 157.12,-153.07"/>
<text text-anchor="middle" x="146.98" y="-168.7" font-family="Times New Roman,serif" font-size="14.00">a</text>
</g>
<!-- q2 -->
<g id="node4" class="node">
<title>q2</title>
<ellipse fill="none" stroke="black" cx="234.73" cy="-123.13" rx="20.13" ry="20.13"/>
<text text-anchor="middle" x="234.73" y="-117.7" font-family="Times New Roman,serif" font-size="14.00">q2</text>
</g>
<!-- q1&#45;&gt;q2 -->
<g id="edge6" class="edge">
<title>q1&#45;&gt;q2</title>
<path fill="none" stroke="black" d="M171.41,-123.85C182.9,-123.72 196.74,-123.56 208.47,-123.42"/>
<polygon fill="black" stroke="black" points="208.4,-125.16 213.38,-123.35 208.36,-121.66 208.4,-125.16"/>
<text text-anchor="middle" x="192.85" y="-125.58" font-family="Times New Roman,serif" font-size="14.00">b</text>
</g>
<!-- q2&#45;&gt;q1 -->
<g id="edge7" class="edge">
<title>q2&#45;&gt;q1</title>
<path fill="none" stroke="black" d="M218.52,-110.85C210.11,-105.5 199.33,-100.94 189.1,-103.38 183.62,-104.68 178.04,-106.84 172.83,-109.29"/>
<polygon fill="black" stroke="black" points="172.46,-108.01 168.76,-111.81 174.01,-111.15 172.46,-108.01"/>
<text text-anchor="middle" x="192.85" y="-105.58" font-family="Times New Roman,serif" font-size="14.00">b</text>
</g>
<!-- q2&#45;&gt;q2 -->
<g id="edge8" class="edge">
<title>q2&#45;&gt;q2</title>
<path fill="none" stroke="black" d="M227.2,-141.96C225.92,-152.05 228.43,-161.25 234.73,-161.25 239.75,-161.25 242.36,-155.41 242.57,-147.93"/>
<polygon fill="black" stroke="black" points="244.27,-147.86 242.26,-142.96 240.77,-148.04 244.27,-147.86"/>
<text text-anchor="middle" x="234.73" y="-163.7" font-family="Times New Roman,serif" font-size="14.00">b</text>
</g>
<!-- q3&#45;&gt;q3 -->
<g id="edge9" class="edge">
<title>q3&#45;&gt;q3</title>
<path fill="none" stroke="black" d="M138.65,-47.09C137.86,-57.37 140.63,-66.25 146.98,-66.25 152.13,-66.25 154.93,-60.39 155.38,-52.68"/>
<polygon fill="black" stroke="black" points="157.12,-53.07 155.31,-48.09 153.62,-53.11 157.12,-53.07"/>
<text text-anchor="middle" x="146.98" y="-68.7" font-family="Times New Roman,serif" font-size="14.00">b</text>
</g>
</g>
</svg>
