<?xml version="1.0" encoding="UTF-8" standalone="no"?>
<!DOCTYPE svg PUBLIC "-//W3C//DTD SVG 1.1//EN"
 "http://www.w3.org/Graphics/SVG/1.1/DTD/svg11.dtd">
<!-- Generated by graphviz version 8.0.5 (20230430.1635)
 -->
<!-- Pages: 1 -->
<svg width="522pt" height="670pt"
 viewBox="0.00 0.00 521.52 669.67" xmlns="http://www.w3.org/2000/svg" xmlns:xlink="http://www.w3.org/1999/xlink">
<g id="graph0" class="graph" transform="scale(1 1) rotate(0) translate(4 665.67)">
<polygon fill="white" stroke="none" points="-4,4 -4,-665.67 517.52,-665.67 517.52,4 -4,4"/>
<!-- i -->
<g id="node1" class="node">
<title>i</title>
<ellipse fill="black" stroke="black" cx="1.8" cy="-265.08" rx="1.8" ry="1.8"/>
</g>
<!-- {q0,q1} -->
<g id="node2" class="node">
<title>{q0,q1}</title>
<ellipse fill="none" stroke="black" cx="81.68" cy="-265.08" rx="41.08" ry="41.08"/>
<text text-anchor="middle" x="81.68" y="-259.66" font-family="Times New Roman,serif" font-size="14.00">{q0,q1}</text>
</g>
<!-- i&#45;&gt;{q0,q1} -->
<g id="edge1" class="edge">
<title>i&#45;&gt;{q0,q1}</title>
<path fill="none" stroke="black" d="M3.9,-265.08C7.66,-265.08 20.51,-265.08 34.65,-265.08"/>
<polygon fill="black" stroke="black" points="34.33,-266.83 39.33,-265.08 34.33,-263.33 34.33,-266.83"/>
</g>
<!-- {q2,q3} -->
<g id="node3" class="node">
<title>{q2,q3}</title>
<ellipse fill="none" stroke="black" cx="206.6" cy="-316.08" rx="41.08" ry="41.08"/>
<text text-anchor="middle" x="206.6" y="-310.66" font-family="Times New Roman,serif" font-size="14.00">{q2,q3}</text>
</g>
<!-- {q0,q1}&#45;&gt;{q2,q3} -->
<g id="edge2" class="edge">
<title>{q0,q1}&#45;&gt;{q2,q3}</title>
<path fill="none" stroke="black" d="M120.23,-280.66C133.69,-286.25 148.97,-292.59 162.84,-298.34"/>
<polygon fill="black" stroke="black" points="162,-300.3 167.28,-300.6 163.34,-297.07 162,-300.3"/>
<text text-anchor="middle" x="144.14" y="-292.53" font-family="Times New Roman,serif" font-size="14.00">0</text>
</g>
<!-- {q6,q3} -->
<g id="node7" class="node">
<title>{q6,q3}</title>
<ellipse fill="none" stroke="black" cx="206.6" cy="-216.08" rx="41.08" ry="41.08"/>
<text text-anchor="middle" x="206.6" y="-210.66" font-family="Times New Roman,serif" font-size="14.00">{q6,q3}</text>
</g>
<!-- {q0,q1}&#45;&gt;{q6,q3} -->
<g id="edge3" class="edge">
<title>{q0,q1}&#45;&gt;{q6,q3}</title>
<path fill="none" stroke="black" d="M120.23,-250.12C133.57,-244.8 148.69,-238.77 162.46,-233.28"/>
<polygon fill="black" stroke="black" points="162.86,-234.61 166.86,-231.13 161.57,-231.35 162.86,-234.61"/>
<text text-anchor="middle" x="144.14" y="-243.53" font-family="Times New Roman,serif" font-size="14.00">1</text>
</g>
<!-- {q4,q5} -->
<g id="node4" class="node">
<title>{q4,q5}</title>
<ellipse fill="none" stroke="black" cx="335.52" cy="-381.08" rx="41.08" ry="41.08"/>
<ellipse fill="none" stroke="black" cx="335.52" cy="-381.08" rx="45.08" ry="45.08"/>
<text text-anchor="middle" x="335.52" y="-375.66" font-family="Times New Roman,serif" font-size="14.00">{q4,q5}</text>
</g>
<!-- {q2,q3}&#45;&gt;{q4,q5} -->
<g id="edge4" class="edge">
<title>{q2,q3}&#45;&gt;{q4,q5}</title>
<path fill="none" stroke="black" d="M243.63,-334.54C257.99,-341.89 274.66,-350.43 289.77,-358.17"/>
<polygon fill="black" stroke="black" points="288.59,-360.04 293.84,-360.76 290.18,-356.92 288.59,-360.04"/>
<text text-anchor="middle" x="269.06" y="-350.53" font-family="Times New Roman,serif" font-size="14.00">0</text>
</g>
<!-- {q6,q5} -->
<g id="node8" class="node">
<title>{q6,q5}</title>
<ellipse fill="none" stroke="black" cx="335.52" cy="-209.08" rx="41.08" ry="41.08"/>
<text text-anchor="middle" x="335.52" y="-203.66" font-family="Times New Roman,serif" font-size="14.00">{q6,q5}</text>
</g>
<!-- {q2,q3}&#45;&gt;{q6,q5} -->
<g id="edge5" class="edge">
<title>{q2,q3}&#45;&gt;{q6,q5}</title>
<path fill="none" stroke="black" d="M238.65,-289.91C256.93,-274.49 280.13,-254.94 299.12,-238.93"/>
<polygon fill="black" stroke="black" points="299.66,-239.92 302.35,-235.36 297.4,-237.24 299.66,-239.92"/>
<text text-anchor="middle" x="269.06" y="-267.53" font-family="Times New Roman,serif" font-size="14.00">1</text>
</g>
<!-- {q4,q7} -->
<g id="node5" class="node">
<title>{q4,q7}</title>
<ellipse fill="none" stroke="black" cx="468.44" cy="-553.08" rx="41.08" ry="41.08"/>
<text text-anchor="middle" x="468.44" y="-547.66" font-family="Times New Roman,serif" font-size="14.00">{q4,q7}</text>
</g>
<!-- {q4,q5}&#45;&gt;{q4,q7} -->
<g id="edge6" class="edge">
<title>{q4,q5}&#45;&gt;{q4,q7}</title>
<path fill="none" stroke="black" d="M361.57,-418.38C378.42,-442.92 401.46,-475.49 423.35,-503.08 427.46,-508.25 431.92,-513.6 436.38,-518.79"/>
<polygon fill="black" stroke="black" points="435.52,-519.47 440.11,-522.11 438.16,-517.18 435.52,-519.47"/>
<text text-anchor="middle" x="401.98" y="-478.53" font-family="Times New Roman,serif" font-size="14.00">0</text>
</g>
<!-- {q4,q9} -->
<g id="node6" class="node">
<title>{q4,q9}</title>
<ellipse fill="none" stroke="black" cx="468.44" cy="-381.08" rx="41.08" ry="41.08"/>
<ellipse fill="none" stroke="black" cx="468.44" cy="-381.08" rx="45.08" ry="45.08"/>
<text text-anchor="middle" x="468.44" y="-375.66" font-family="Times New Roman,serif" font-size="14.00">{q4,q9}</text>
</g>
<!-- {q4,q5}&#45;&gt;{q4,q9} -->
<g id="edge7" class="edge">
<title>{q4,q5}&#45;&gt;{q4,q9}</title>
<path fill="none" stroke="black" d="M380.84,-381.08C392.57,-381.08 405.32,-381.08 417.33,-381.08"/>
<polygon fill="black" stroke="black" points="417.16,-382.83 422.16,-381.08 417.16,-379.33 417.16,-382.83"/>
<text text-anchor="middle" x="401.98" y="-383.53" font-family="Times New Roman,serif" font-size="14.00">1</text>
</g>
<!-- {q4,q7}&#45;&gt;{q4,q7} -->
<g id="edge8" class="edge">
<title>{q4,q7}&#45;&gt;{q4,q7}</title>
<path fill="none" stroke="black" d="M462.28,-593.95C462.69,-604.36 464.74,-612.17 468.44,-612.17 471.39,-612.17 473.29,-607.21 474.14,-599.93"/>
<polygon fill="black" stroke="black" points="475.96,-600.07 474.59,-594.95 472.47,-599.81 475.96,-600.07"/>
<text text-anchor="middle" x="468.44" y="-614.62" font-family="Times New Roman,serif" font-size="14.00">0</text>
</g>
<!-- {q4,q7}&#45;&gt;{q4,q7} -->
<g id="edge9" class="edge">
<title>{q4,q7}&#45;&gt;{q4,q7}</title>
<path fill="none" stroke="black" d="M456.34,-592.75C454.67,-612.52 458.7,-630.17 468.44,-630.17 477.18,-630.17 481.33,-615.93 480.86,-598.69"/>
<polygon fill="black" stroke="black" points="482.56,-598.64 480.53,-593.75 479.06,-598.84 482.56,-598.64"/>
<text text-anchor="middle" x="468.44" y="-632.62" font-family="Times New Roman,serif" font-size="14.00">1</text>
</g>
<!-- {q4,q9}&#45;&gt;{q4,q9} -->
<g id="edge10" class="edge">
<title>{q4,q9}&#45;&gt;{q4,q9}</title>
<path fill="none" stroke="black" d="M462.34,-426.16C462.87,-436.54 464.9,-444.17 468.44,-444.17 471.26,-444.17 473.12,-439.33 474.02,-432.11"/>
<polygon fill="black" stroke="black" points="475.85,-432.29 474.53,-427.16 472.36,-432 475.85,-432.29"/>
<text text-anchor="middle" x="468.44" y="-446.62" font-family="Times New Roman,serif" font-size="14.00">0</text>
</g>
<!-- {q4,q9}&#45;&gt;{q4,q9} -->
<g id="edge11" class="edge">
<title>{q4,q9}&#45;&gt;{q4,q9}</title>
<path fill="none" stroke="black" d="M456.2,-424.88C454.95,-444.83 459.03,-462.17 468.44,-462.17 476.89,-462.17 481.05,-448.17 480.89,-430.86"/>
<polygon fill="black" stroke="black" points="482.61,-430.81 480.68,-425.88 479.11,-430.94 482.61,-430.81"/>
<text text-anchor="middle" x="468.44" y="-464.62" font-family="Times New Roman,serif" font-size="14.00">1</text>
</g>
<!-- {q6,q3}&#45;&gt;{q6,q5} -->
<g id="edge12" class="edge">
<title>{q6,q3}&#45;&gt;{q6,q5}</title>
<path fill="none" stroke="black" d="M247.54,-221.54C253.61,-222.18 259.81,-222.73 265.69,-223.08 273.7,-223.56 282.14,-222.87 290.26,-221.58"/>
<polygon fill="black" stroke="black" points="290.2,-223.19 294.82,-220.6 289.59,-219.74 290.2,-223.19"/>
<text text-anchor="middle" x="269.06" y="-226.53" font-family="Times New Roman,serif" font-size="14.00">0</text>
</g>
<!-- {q6,q3}&#45;&gt;{q6,q5} -->
<g id="edge13" class="edge">
<title>{q6,q3}&#45;&gt;{q6,q5}</title>
<path fill="none" stroke="black" d="M246.78,-206.28C253.07,-205.06 259.53,-204 265.69,-203.33 273.1,-202.53 280.97,-202.46 288.64,-202.8"/>
<polygon fill="black" stroke="black" points="288.36,-204.6 293.45,-203.15 288.56,-201.11 288.36,-204.6"/>
<text text-anchor="middle" x="269.06" y="-206.53" font-family="Times New Roman,serif" font-size="14.00">1</text>
</g>
<!-- {q6,q7} -->
<g id="node9" class="node">
<title>{q6,q7}</title>
<ellipse fill="none" stroke="black" cx="468.44" cy="-209.08" rx="41.08" ry="41.08"/>
<text text-anchor="middle" x="468.44" y="-203.66" font-family="Times New Roman,serif" font-size="14.00">{q6,q7}</text>
</g>
<!-- {q6,q5}&#45;&gt;{q6,q7} -->
<g id="edge14" class="edge">
<title>{q6,q5}&#45;&gt;{q6,q7}</title>
<path fill="none" stroke="black" d="M376.87,-209.08C390.93,-209.08 406.81,-209.08 421.31,-209.08"/>
<polygon fill="black" stroke="black" points="421,-210.83 426,-209.08 421,-207.33 421,-210.83"/>
<text text-anchor="middle" x="401.98" y="-211.53" font-family="Times New Roman,serif" font-size="14.00">0</text>
</g>
<!-- {q6,q9} -->
<g id="node10" class="node">
<title>{q6,q9}</title>
<ellipse fill="none" stroke="black" cx="468.44" cy="-41.08" rx="41.08" ry="41.08"/>
<text text-anchor="middle" x="468.44" y="-35.66" font-family="Times New Roman,serif" font-size="14.00">{q6,q9}</text>
</g>
<!-- {q6,q5}&#45;&gt;{q6,q9} -->
<g id="edge15" class="edge">
<title>{q6,q5}&#45;&gt;{q6,q9}</title>
<path fill="none" stroke="black" d="M361.45,-177.09C383.49,-148.8 415.64,-107.55 438.75,-77.9"/>
<polygon fill="black" stroke="black" points="440.68,-79.27 442.38,-74.25 437.92,-77.11 440.68,-79.27"/>
<text text-anchor="middle" x="401.98" y="-127.53" font-family="Times New Roman,serif" font-size="14.00">1</text>
</g>
<!-- {q6,q7}&#45;&gt;{q6,q7} -->
<g id="edge16" class="edge">
<title>{q6,q7}&#45;&gt;{q6,q7}</title>
<path fill="none" stroke="black" d="M462.28,-249.95C462.69,-260.36 464.74,-268.17 468.44,-268.17 471.39,-268.17 473.29,-263.21 474.14,-255.93"/>
<polygon fill="black" stroke="black" points="475.96,-256.07 474.59,-250.95 472.47,-255.81 475.96,-256.07"/>
<text text-anchor="middle" x="468.44" y="-270.62" font-family="Times New Roman,serif" font-size="14.00">0</text>
</g>
<!-- {q6,q7}&#45;&gt;{q6,q7} -->
<g id="edge17" class="edge">
<title>{q6,q7}&#45;&gt;{q6,q7}</title>
<path fill="none" stroke="black" d="M456.34,-248.75C454.67,-268.52 458.7,-286.17 468.44,-286.17 477.18,-286.17 481.33,-271.93 480.86,-254.69"/>
<polygon fill="black" stroke="black" points="482.56,-254.64 480.53,-249.75 479.06,-254.84 482.56,-254.64"/>
<text text-anchor="middle" x="468.44" y="-288.62" font-family="Times New Roman,serif" font-size="14.00">1</text>
</g>
<!-- {q6,q9}&#45;&gt;{q6,q9} -->
<g id="edge18" class="edge">
<title>{q6,q9}&#45;&gt;{q6,q9}</title>
<path fill="none" stroke="black" d="M462.28,-81.95C462.69,-92.36 464.74,-100.17 468.44,-100.17 471.39,-100.17 473.29,-95.21 474.14,-87.93"/>
<polygon fill="black" stroke="black" points="475.96,-88.07 474.59,-82.95 472.47,-87.81 475.96,-88.07"/>
<text text-anchor="middle" x="468.44" y="-102.62" font-family="Times New Roman,serif" font-size="14.00">0</text>
</g>
<!-- {q6,q9}&#45;&gt;{q6,q9} -->
<g id="edge19" class="edge">
<title>{q6,q9}&#45;&gt;{q6,q9}</title>
<path fill="none" stroke="black" d="M456.34,-80.75C454.67,-100.52 458.7,-118.17 468.44,-118.17 477.18,-118.17 481.33,-103.93 480.86,-86.69"/>
<polygon fill="black" stroke="black" points="482.56,-86.64 480.53,-81.75 479.06,-86.84 482.56,-86.64"/>
<text text-anchor="middle" x="468.44" y="-120.62" font-family="Times New Roman,serif" font-size="14.00">1</text>
</g>
</g>
</svg>
