<?xml version="1.0" encoding="UTF-8" standalone="no"?>
<!DOCTYPE svg PUBLIC "-//W3C//DTD SVG 1.1//EN"
 "http://www.w3.org/Graphics/SVG/1.1/DTD/svg11.dtd">
<!-- Generated by graphviz version 8.0.5 (20230430.1635)
 -->
<!-- Pages: 1 -->
<svg width="522pt" height="686pt"
 viewBox="0.00 0.00 521.52 685.67" xmlns="http://www.w3.org/2000/svg" xmlns:xlink="http://www.w3.org/1999/xlink">
<g id="graph0" class="graph" transform="scale(1 1) rotate(0) translate(4 681.67)">
<polygon fill="white" stroke="none" points="-4,4 -4,-681.67 517.52,-681.67 517.52,4 -4,4"/>
<!-- i -->
<g id="node1" class="node">
<title>i</title>
<ellipse fill="black" stroke="black" cx="1.8" cy="-271.08" rx="1.8" ry="1.8"/>
</g>
<!-- {q0,q1} -->
<g id="node2" class="node">
<title>{q0,q1}</title>
<ellipse fill="none" stroke="black" cx="81.68" cy="-271.08" rx="41.08" ry="41.08"/>
<text text-anchor="middle" x="81.68" y="-265.66" font-family="Times New Roman,serif" font-size="14.00">{q0,q1}</text>
</g>
<!-- i&#45;&gt;{q0,q1} -->
<g id="edge1" class="edge">
<title>i&#45;&gt;{q0,q1}</title>
<path fill="none" stroke="black" d="M3.9,-271.08C7.66,-271.08 20.51,-271.08 34.65,-271.08"/>
<polygon fill="black" stroke="black" points="34.33,-272.83 39.33,-271.08 34.33,-269.33 34.33,-272.83"/>
</g>
<!-- {q2,q3} -->
<g id="node3" class="node">
<title>{q2,q3}</title>
<ellipse fill="none" stroke="black" cx="206.6" cy="-322.08" rx="41.08" ry="41.08"/>
<text text-anchor="middle" x="206.6" y="-316.66" font-family="Times New Roman,serif" font-size="14.00">{q2,q3}</text>
</g>
<!-- {q0,q1}&#45;&gt;{q2,q3} -->
<g id="edge2" class="edge">
<title>{q0,q1}&#45;&gt;{q2,q3}</title>
<path fill="none" stroke="black" d="M120.23,-286.66C133.69,-292.25 148.97,-298.59 162.84,-304.34"/>
<polygon fill="black" stroke="black" points="162,-306.3 167.28,-306.6 163.34,-303.07 162,-306.3"/>
<text text-anchor="middle" x="144.14" y="-298.53" font-family="Times New Roman,serif" font-size="14.00">0</text>
</g>
<!-- {q6,q3} -->
<g id="node7" class="node">
<title>{q6,q3}</title>
<ellipse fill="none" stroke="black" cx="206.6" cy="-222.08" rx="41.08" ry="41.08"/>
<text text-anchor="middle" x="206.6" y="-216.66" font-family="Times New Roman,serif" font-size="14.00">{q6,q3}</text>
</g>
<!-- {q0,q1}&#45;&gt;{q6,q3} -->
<g id="edge3" class="edge">
<title>{q0,q1}&#45;&gt;{q6,q3}</title>
<path fill="none" stroke="black" d="M120.23,-256.12C133.57,-250.8 148.69,-244.77 162.46,-239.28"/>
<polygon fill="black" stroke="black" points="162.86,-240.61 166.86,-237.13 161.57,-237.35 162.86,-240.61"/>
<text text-anchor="middle" x="144.14" y="-249.53" font-family="Times New Roman,serif" font-size="14.00">1</text>
</g>
<!-- {q4,q5} -->
<g id="node4" class="node">
<title>{q4,q5}</title>
<ellipse fill="none" stroke="black" cx="335.52" cy="-389.08" rx="41.08" ry="41.08"/>
<ellipse fill="none" stroke="black" cx="335.52" cy="-389.08" rx="45.08" ry="45.08"/>
<text text-anchor="middle" x="335.52" y="-383.66" font-family="Times New Roman,serif" font-size="14.00">{q4,q5}</text>
</g>
<!-- {q2,q3}&#45;&gt;{q4,q5} -->
<g id="edge4" class="edge">
<title>{q2,q3}&#45;&gt;{q4,q5}</title>
<path fill="none" stroke="black" d="M243.29,-340.93C257.79,-348.58 274.68,-357.5 289.97,-365.57"/>
<polygon fill="black" stroke="black" points="288.85,-367.48 294.09,-368.27 290.48,-364.39 288.85,-367.48"/>
<text text-anchor="middle" x="269.06" y="-357.53" font-family="Times New Roman,serif" font-size="14.00">0</text>
</g>
<!-- {q6,q5} -->
<g id="node8" class="node">
<title>{q6,q5}</title>
<ellipse fill="none" stroke="black" cx="335.52" cy="-213.08" rx="41.08" ry="41.08"/>
<text text-anchor="middle" x="335.52" y="-207.66" font-family="Times New Roman,serif" font-size="14.00">{q6,q5}</text>
</g>
<!-- {q2,q3}&#45;&gt;{q6,q5} -->
<g id="edge5" class="edge">
<title>{q2,q3}&#45;&gt;{q6,q5}</title>
<path fill="none" stroke="black" d="M238.33,-295.7C256.74,-279.88 280.22,-259.72 299.37,-243.27"/>
<polygon fill="black" stroke="black" points="299.99,-244.19 302.64,-239.6 297.71,-241.53 299.99,-244.19"/>
<text text-anchor="middle" x="269.06" y="-272.53" font-family="Times New Roman,serif" font-size="14.00">1</text>
</g>
<!-- {q4,q7} -->
<g id="node5" class="node">
<title>{q4,q7}</title>
<ellipse fill="none" stroke="black" cx="468.44" cy="-565.08" rx="41.08" ry="41.08"/>
<ellipse fill="none" stroke="black" cx="468.44" cy="-565.08" rx="45.08" ry="45.08"/>
<text text-anchor="middle" x="468.44" y="-559.66" font-family="Times New Roman,serif" font-size="14.00">{q4,q7}</text>
</g>
<!-- {q4,q5}&#45;&gt;{q4,q7} -->
<g id="edge6" class="edge">
<title>{q4,q5}&#45;&gt;{q4,q7}</title>
<path fill="none" stroke="black" d="M361.93,-426.11C378.91,-450.54 401.99,-483.07 423.35,-511.08 427.12,-516.02 431.15,-521.15 435.18,-526.19"/>
<polygon fill="black" stroke="black" points="434.38,-526.99 438.87,-529.79 437.1,-524.79 434.38,-526.99"/>
<text text-anchor="middle" x="401.98" y="-486.53" font-family="Times New Roman,serif" font-size="14.00">0</text>
</g>
<!-- {q4,q9} -->
<g id="node6" class="node">
<title>{q4,q9}</title>
<ellipse fill="none" stroke="black" cx="468.44" cy="-389.08" rx="41.08" ry="41.08"/>
<ellipse fill="none" stroke="black" cx="468.44" cy="-389.08" rx="45.08" ry="45.08"/>
<text text-anchor="middle" x="468.44" y="-383.66" font-family="Times New Roman,serif" font-size="14.00">{q4,q9}</text>
</g>
<!-- {q4,q5}&#45;&gt;{q4,q9} -->
<g id="edge7" class="edge">
<title>{q4,q5}&#45;&gt;{q4,q9}</title>
<path fill="none" stroke="black" d="M380.84,-389.08C392.57,-389.08 405.32,-389.08 417.33,-389.08"/>
<polygon fill="black" stroke="black" points="417.16,-390.83 422.16,-389.08 417.16,-387.33 417.16,-390.83"/>
<text text-anchor="middle" x="401.98" y="-391.53" font-family="Times New Roman,serif" font-size="14.00">1</text>
</g>
<!-- {q4,q7}&#45;&gt;{q4,q7} -->
<g id="edge8" class="edge">
<title>{q4,q7}&#45;&gt;{q4,q7}</title>
<path fill="none" stroke="black" d="M462.34,-610.16C462.87,-620.54 464.9,-628.17 468.44,-628.17 471.26,-628.17 473.12,-623.33 474.02,-616.11"/>
<polygon fill="black" stroke="black" points="475.85,-616.29 474.53,-611.16 472.36,-616 475.85,-616.29"/>
<text text-anchor="middle" x="468.44" y="-630.62" font-family="Times New Roman,serif" font-size="14.00">0</text>
</g>
<!-- {q4,q7}&#45;&gt;{q4,q7} -->
<g id="edge9" class="edge">
<title>{q4,q7}&#45;&gt;{q4,q7}</title>
<path fill="none" stroke="black" d="M456.2,-608.88C454.95,-628.83 459.03,-646.17 468.44,-646.17 476.89,-646.17 481.05,-632.17 480.89,-614.86"/>
<polygon fill="black" stroke="black" points="482.61,-614.81 480.68,-609.88 479.11,-614.94 482.61,-614.81"/>
<text text-anchor="middle" x="468.44" y="-648.62" font-family="Times New Roman,serif" font-size="14.00">1</text>
</g>
<!-- {q4,q9}&#45;&gt;{q4,q9} -->
<g id="edge10" class="edge">
<title>{q4,q9}&#45;&gt;{q4,q9}</title>
<path fill="none" stroke="black" d="M462.34,-434.16C462.87,-444.54 464.9,-452.17 468.44,-452.17 471.26,-452.17 473.12,-447.33 474.02,-440.11"/>
<polygon fill="black" stroke="black" points="475.85,-440.29 474.53,-435.16 472.36,-440 475.85,-440.29"/>
<text text-anchor="middle" x="468.44" y="-454.62" font-family="Times New Roman,serif" font-size="14.00">0</text>
</g>
<!-- {q4,q9}&#45;&gt;{q4,q9} -->
<g id="edge11" class="edge">
<title>{q4,q9}&#45;&gt;{q4,q9}</title>
<path fill="none" stroke="black" d="M456.2,-432.88C454.95,-452.83 459.03,-470.17 468.44,-470.17 476.89,-470.17 481.05,-456.17 480.89,-438.86"/>
<polygon fill="black" stroke="black" points="482.61,-438.81 480.68,-433.88 479.11,-438.94 482.61,-438.81"/>
<text text-anchor="middle" x="468.44" y="-472.62" font-family="Times New Roman,serif" font-size="14.00">1</text>
</g>
<!-- {q6,q3}&#45;&gt;{q6,q5} -->
<g id="edge12" class="edge">
<title>{q6,q3}&#45;&gt;{q6,q5}</title>
<path fill="none" stroke="black" d="M247.4,-229.32C255.68,-230 264.35,-230.11 272.44,-229.08 278.15,-228.36 284.09,-227.27 289.93,-226"/>
<polygon fill="black" stroke="black" points="290.25,-227.5 294.73,-224.68 289.47,-224.09 290.25,-227.5"/>
<text text-anchor="middle" x="269.06" y="-232.53" font-family="Times New Roman,serif" font-size="14.00">0</text>
</g>
<!-- {q6,q3}&#45;&gt;{q6,q5} -->
<g id="edge13" class="edge">
<title>{q6,q3}&#45;&gt;{q6,q5}</title>
<path fill="none" stroke="black" d="M246.78,-212.28C253.07,-211.06 259.53,-210 265.69,-209.33 273.08,-208.53 280.94,-208.34 288.61,-208.51"/>
<polygon fill="black" stroke="black" points="288.37,-210.29 293.42,-208.71 288.48,-206.79 288.37,-210.29"/>
<text text-anchor="middle" x="269.06" y="-212.53" font-family="Times New Roman,serif" font-size="14.00">1</text>
</g>
<!-- {q6,q7} -->
<g id="node9" class="node">
<title>{q6,q7}</title>
<ellipse fill="none" stroke="black" cx="468.44" cy="-213.08" rx="41.08" ry="41.08"/>
<ellipse fill="none" stroke="black" cx="468.44" cy="-213.08" rx="45.08" ry="45.08"/>
<text text-anchor="middle" x="468.44" y="-207.66" font-family="Times New Roman,serif" font-size="14.00">{q6,q7}</text>
</g>
<!-- {q6,q5}&#45;&gt;{q6,q7} -->
<g id="edge14" class="edge">
<title>{q6,q5}&#45;&gt;{q6,q7}</title>
<path fill="none" stroke="black" d="M376.87,-213.08C389.62,-213.08 403.87,-213.08 417.23,-213.08"/>
<polygon fill="black" stroke="black" points="416.89,-214.83 421.89,-213.08 416.89,-211.33 416.89,-214.83"/>
<text text-anchor="middle" x="401.98" y="-215.53" font-family="Times New Roman,serif" font-size="14.00">0</text>
</g>
<!-- {q6,q9} -->
<g id="node10" class="node">
<title>{q6,q9}</title>
<ellipse fill="none" stroke="black" cx="468.44" cy="-41.08" rx="41.08" ry="41.08"/>
<text text-anchor="middle" x="468.44" y="-35.66" font-family="Times New Roman,serif" font-size="14.00">{q6,q9}</text>
</g>
<!-- {q6,q5}&#45;&gt;{q6,q9} -->
<g id="edge15" class="edge">
<title>{q6,q5}&#45;&gt;{q6,q9}</title>
<path fill="none" stroke="black" d="M361.14,-180.73C383.38,-151.52 416.09,-108.54 439.34,-78"/>
<polygon fill="black" stroke="black" points="441.07,-79.62 442.7,-74.58 438.28,-77.5 441.07,-79.62"/>
<text text-anchor="middle" x="401.98" y="-129.53" font-family="Times New Roman,serif" font-size="14.00">1</text>
</g>
<!-- {q6,q7}&#45;&gt;{q6,q7} -->
<g id="edge16" class="edge">
<title>{q6,q7}&#45;&gt;{q6,q7}</title>
<path fill="none" stroke="black" d="M462.34,-258.16C462.87,-268.54 464.9,-276.17 468.44,-276.17 471.26,-276.17 473.12,-271.33 474.02,-264.11"/>
<polygon fill="black" stroke="black" points="475.85,-264.29 474.53,-259.16 472.36,-264 475.85,-264.29"/>
<text text-anchor="middle" x="468.44" y="-278.62" font-family="Times New Roman,serif" font-size="14.00">0</text>
</g>
<!-- {q6,q7}&#45;&gt;{q6,q7} -->
<g id="edge17" class="edge">
<title>{q6,q7}&#45;&gt;{q6,q7}</title>
<path fill="none" stroke="black" d="M456.2,-256.88C454.95,-276.83 459.03,-294.17 468.44,-294.17 476.89,-294.17 481.05,-280.17 480.89,-262.86"/>
<polygon fill="black" stroke="black" points="482.61,-262.81 480.68,-257.88 479.11,-262.94 482.61,-262.81"/>
<text text-anchor="middle" x="468.44" y="-296.62" font-family="Times New Roman,serif" font-size="14.00">1</text>
</g>
<!-- {q6,q9}&#45;&gt;{q6,q9} -->
<g id="edge18" class="edge">
<title>{q6,q9}&#45;&gt;{q6,q9}</title>
<path fill="none" stroke="black" d="M462.28,-81.95C462.69,-92.36 464.74,-100.17 468.44,-100.17 471.39,-100.17 473.29,-95.21 474.14,-87.93"/>
<polygon fill="black" stroke="black" points="475.96,-88.07 474.59,-82.95 472.47,-87.81 475.96,-88.07"/>
<text text-anchor="middle" x="468.44" y="-102.62" font-family="Times New Roman,serif" font-size="14.00">0</text>
</g>
<!-- {q6,q9}&#45;&gt;{q6,q9} -->
<g id="edge19" class="edge">
<title>{q6,q9}&#45;&gt;{q6,q9}</title>
<path fill="none" stroke="black" d="M456.34,-80.75C454.67,-100.52 458.7,-118.17 468.44,-118.17 477.18,-118.17 481.33,-103.93 480.86,-86.69"/>
<polygon fill="black" stroke="black" points="482.56,-86.64 480.53,-81.75 479.06,-86.84 482.56,-86.64"/>
<text text-anchor="middle" x="468.44" y="-120.62" font-family="Times New Roman,serif" font-size="14.00">1</text>
</g>
</g>
</svg>
