<?xml version="1.0" encoding="UTF-8" standalone="no"?>
<!DOCTYPE svg PUBLIC "-//W3C//DTD SVG 1.1//EN"
 "http://www.w3.org/Graphics/SVG/1.1/DTD/svg11.dtd">
<!-- Generated by graphviz version 8.0.5 (20230430.1635)
 -->
<!-- Pages: 1 -->
<svg width="181pt" height="120pt"
 viewBox="0.00 0.00 180.60 119.75" xmlns="http://www.w3.org/2000/svg" xmlns:xlink="http://www.w3.org/1999/xlink">
<g id="graph0" class="graph" transform="scale(1 1) rotate(0) translate(4 115.75)">
<polygon fill="white" stroke="none" points="-4,4 -4,-115.75 176.6,-115.75 176.6,4 -4,4"/>
<!-- i -->
<g id="node1" class="node">
<title>i</title>
<ellipse fill="black" stroke="black" cx="1.8" cy="-24.13" rx="1.8" ry="1.8"/>
</g>
<!-- q0 -->
<g id="node2" class="node">
<title>q0</title>
<ellipse fill="none" stroke="black" cx="60.73" cy="-24.13" rx="20.13" ry="20.13"/>
<text text-anchor="middle" x="60.73" y="-18.7" font-family="Times New Roman,serif" font-size="14.00">q0</text>
</g>
<!-- i&#45;&gt;q0 -->
<g id="edge1" class="edge">
<title>i&#45;&gt;q0</title>
<path fill="none" stroke="black" d="M3.79,-24.13C7.55,-24.13 21.44,-24.13 34.43,-24.13"/>
<polygon fill="black" stroke="black" points="34.3,-25.88 39.3,-24.13 34.3,-22.38 34.3,-25.88"/>
</g>
<!-- q0&#45;&gt;q0 -->
<g id="edge2" class="edge">
<title>q0&#45;&gt;q0</title>
<path fill="none" stroke="black" d="M57.19,-44.13C56.76,-53.76 57.93,-62.25 60.73,-62.25 62.95,-62.25 64.15,-56.86 64.32,-49.8"/>
<polygon fill="black" stroke="black" points="66.07,-50.11 64.26,-45.13 62.57,-50.15 66.07,-50.11"/>
<text text-anchor="middle" x="60.73" y="-64.7" font-family="Times New Roman,serif" font-size="14.00">a</text>
</g>
<!-- q0&#45;&gt;q0 -->
<g id="edge3" class="edge">
<title>q0&#45;&gt;q0</title>
<path fill="none" stroke="black" d="M54.77,-43.68C51.88,-61.34 53.86,-80.25 60.73,-80.25 66.84,-80.25 69.08,-65.25 67.45,-49.5"/>
<polygon fill="black" stroke="black" points="69.08,-49.41 66.68,-44.68 65.61,-49.87 69.08,-49.41"/>
<text text-anchor="middle" x="60.73" y="-82.7" font-family="Times New Roman,serif" font-size="14.00">b</text>
</g>
<!-- q1 -->
<g id="node3" class="node">
<title>q1</title>
<ellipse fill="none" stroke="black" cx="148.48" cy="-24.13" rx="20.13" ry="20.13"/>
<ellipse fill="none" stroke="black" cx="148.48" cy="-24.13" rx="24.13" ry="24.13"/>
<text text-anchor="middle" x="148.48" y="-18.7" font-family="Times New Roman,serif" font-size="14.00">q1</text>
</g>
<!-- q0&#45;&gt;q1 -->
<g id="edge4" class="edge">
<title>q0&#45;&gt;q1</title>
<path fill="none" stroke="black" d="M81.18,-24.13C92.14,-24.13 106.04,-24.13 118.28,-24.13"/>
<polygon fill="black" stroke="black" points="118.13,-25.88 123.13,-24.13 118.13,-22.38 118.13,-25.88"/>
<text text-anchor="middle" x="102.6" y="-26.58" font-family="Times New Roman,serif" font-size="14.00">b</text>
</g>
</g>
</svg>
